<?xml version="1.0" encoding="UTF-8"?><svg id="Lose_Screen" xmlns="http://www.w3.org/2000/svg" width="1200" height="630" viewBox="0 0 1200 630"><defs><style>.cls-1{fill:#f1f2f2;stroke:#f15a29;stroke-miterlimit:10;stroke-width:.5px;}.cls-2{fill:#262262;stroke:#27aae1;stroke-linejoin:round;stroke-width:18px;}</style></defs><rect class="cls-2" x="21.84" y="16.92" width="1156.33" height="596.15"/><g><path class="cls-1" d="M297.59,203.11v-20.59l-15.34-27.94h7.13l6.84,13.39c1.87,3.67,3.31,6.62,4.82,10.01h.14c1.37-3.17,3.02-6.34,4.9-10.01l6.98-13.39h7.13l-16.27,27.87v20.67h-6.34Z"/><path class="cls-1" d="M351.6,185.4c0,12.89-8.93,18.51-17.35,18.51-9.43,0-16.71-6.91-16.71-17.93,0-11.66,7.63-18.51,17.28-18.51s16.78,7.27,16.78,17.93Zm-27.65,.36c0,7.63,4.39,13.39,10.58,13.39s10.58-5.69,10.58-13.54c0-5.9-2.95-13.39-10.44-13.39s-10.73,6.91-10.73,13.54Z"/><path class="cls-1" d="M388.75,193.61c0,3.6,.07,6.77,.29,9.5h-5.62l-.36-5.69h-.14c-1.66,2.81-5.33,6.48-11.52,6.48-5.47,0-12.02-3.02-12.02-15.27v-20.38h6.34v19.3c0,6.62,2.02,11.09,7.78,11.09,4.25,0,7.2-2.95,8.35-5.76,.36-.94,.58-2.09,.58-3.24v-21.39h6.34v25.35Z"/><path class="cls-1" d="M399.26,179.14c0-4.1-.07-7.63-.29-10.87h5.54l.22,6.84h.29c1.58-4.68,5.4-7.63,9.65-7.63,.72,0,1.22,.07,1.8,.22v5.98c-.65-.14-1.3-.22-2.16-.22-4.46,0-7.63,3.38-8.5,8.14-.14,.86-.29,1.87-.29,2.95v18.58h-6.26v-23.98Z"/><path class="cls-1" d="M457.36,203.11l-.5-4.39h-.22c-1.94,2.74-5.69,5.18-10.66,5.18-7.06,0-10.66-4.97-10.66-10.01,0-8.42,7.49-13.03,20.95-12.96v-.72c0-2.88-.79-8.06-7.92-8.06-3.24,0-6.62,1.01-9.07,2.59l-1.44-4.18c2.88-1.87,7.06-3.1,11.45-3.1,10.66,0,13.25,7.27,13.25,14.26v13.03c0,3.02,.14,5.98,.58,8.35h-5.76Zm-.94-17.79c-6.91-.14-14.76,1.08-14.76,7.85,0,4.1,2.74,6.05,5.98,6.05,4.54,0,7.42-2.88,8.42-5.83,.22-.65,.36-1.37,.36-2.02v-6.05Z"/><path class="cls-1" d="M471.9,196.63c1.87,1.22,5.18,2.52,8.35,2.52,4.61,0,6.77-2.3,6.77-5.18,0-3.02-1.8-4.68-6.48-6.41-6.26-2.23-9.22-5.69-9.22-9.86,0-5.62,4.54-10.23,12.02-10.23,3.53,0,6.62,1.01,8.57,2.16l-1.58,4.61c-1.37-.86-3.89-2.02-7.13-2.02-3.74,0-5.83,2.16-5.83,4.75,0,2.88,2.09,4.18,6.62,5.9,6.05,2.3,9.15,5.33,9.15,10.51,0,6.12-4.75,10.44-13.03,10.44-3.82,0-7.34-.94-9.79-2.38l1.58-4.82Z"/><path class="cls-1" d="M508.91,158.25v10.01h9.07v4.82h-9.07v18.79c0,4.32,1.22,6.77,4.75,6.77,1.66,0,2.88-.22,3.67-.43l.29,4.75c-1.22,.5-3.17,.86-5.62,.86-2.95,0-5.33-.94-6.84-2.66-1.8-1.87-2.45-4.97-2.45-9.07v-19.01h-5.4v-4.82h5.4v-8.35l6.19-1.66Z"/><path class="cls-1" d="M525.11,179.14c0-4.1-.07-7.63-.29-10.87h5.54l.22,6.84h.29c1.58-4.68,5.4-7.63,9.65-7.63,.72,0,1.22,.07,1.8,.22v5.98c-.65-.14-1.3-.22-2.16-.22-4.46,0-7.63,3.38-8.5,8.14-.14,.86-.29,1.87-.29,2.95v18.58h-6.26v-23.98Z"/><path class="cls-1" d="M579.47,185.4c0,12.89-8.93,18.51-17.35,18.51-9.43,0-16.71-6.91-16.71-17.93,0-11.66,7.63-18.51,17.28-18.51s16.78,7.27,16.78,17.93Zm-27.65,.36c0,7.63,4.39,13.39,10.58,13.39s10.58-5.69,10.58-13.54c0-5.9-2.95-13.39-10.44-13.39s-10.73,6.91-10.73,13.54Z"/><path class="cls-1" d="M587.46,177.7c0-3.6-.07-6.55-.29-9.43h5.62l.36,5.76h.14c1.73-3.31,5.76-6.55,11.52-6.55,4.82,0,12.31,2.88,12.31,14.83v20.81h-6.34v-20.09c0-5.62-2.09-10.3-8.06-10.3-4.18,0-7.42,2.95-8.5,6.48-.29,.79-.43,1.87-.43,2.95v20.95h-6.34v-25.42Z"/><path class="cls-1" d="M646.72,203.11l-.5-4.39h-.22c-1.94,2.74-5.69,5.18-10.66,5.18-7.06,0-10.66-4.97-10.66-10.01,0-8.42,7.49-13.03,20.95-12.96v-.72c0-2.88-.79-8.06-7.92-8.06-3.24,0-6.62,1.01-9.07,2.59l-1.44-4.18c2.88-1.87,7.06-3.1,11.45-3.1,10.66,0,13.25,7.27,13.25,14.26v13.03c0,3.02,.14,5.98,.58,8.35h-5.76Zm-.94-17.79c-6.91-.14-14.76,1.08-14.76,7.85,0,4.1,2.74,6.05,5.98,6.05,4.54,0,7.42-2.88,8.42-5.83,.22-.65,.36-1.37,.36-2.02v-6.05Z"/><path class="cls-1" d="M691.29,193.61c0,3.6,.07,6.77,.29,9.5h-5.62l-.36-5.69h-.14c-1.66,2.81-5.33,6.48-11.52,6.48-5.47,0-12.02-3.02-12.02-15.27v-20.38h6.34v19.3c0,6.62,2.02,11.09,7.78,11.09,4.25,0,7.2-2.95,8.35-5.76,.36-.94,.58-2.09,.58-3.24v-21.39h6.34v25.35Z"/><path class="cls-1" d="M709.43,158.25v10.01h9.07v4.82h-9.07v18.79c0,4.32,1.22,6.77,4.75,6.77,1.66,0,2.88-.22,3.67-.43l.29,4.75c-1.22,.5-3.17,.86-5.62,.86-2.95,0-5.33-.94-6.84-2.66-1.8-1.87-2.45-4.97-2.45-9.07v-19.01h-5.4v-4.82h5.4v-8.35l6.19-1.66Z"/><path class="cls-1" d="M747.95,158.47c.07,2.16-1.51,3.89-4.03,3.89-2.23,0-3.82-1.73-3.82-3.89s1.66-3.96,3.96-3.96,3.89,1.73,3.89,3.96Zm-7.06,44.64v-34.85h6.34v34.85h-6.34Z"/><path class="cls-1" d="M756.87,196.63c1.87,1.22,5.18,2.52,8.35,2.52,4.61,0,6.77-2.3,6.77-5.18,0-3.02-1.8-4.68-6.48-6.41-6.26-2.23-9.22-5.69-9.22-9.86,0-5.62,4.54-10.23,12.02-10.23,3.53,0,6.62,1.01,8.57,2.16l-1.58,4.61c-1.37-.86-3.89-2.02-7.13-2.02-3.74,0-5.83,2.16-5.83,4.75,0,2.88,2.09,4.18,6.62,5.9,6.05,2.3,9.15,5.33,9.15,10.51,0,6.12-4.75,10.44-13.03,10.44-3.82,0-7.34-.94-9.79-2.38l1.58-4.82Z"/><path class="cls-1" d="M831.61,151.99v42.12c0,3.1,.07,6.62,.29,9h-5.69l-.29-6.05h-.14c-1.94,3.89-6.19,6.84-11.88,6.84-8.42,0-14.91-7.13-14.91-17.71-.07-11.59,7.13-18.72,15.63-18.72,5.33,0,8.93,2.52,10.51,5.33h.14v-20.81h6.34Zm-6.34,30.46c0-.79-.07-1.87-.29-2.66-.94-4.03-4.39-7.34-9.14-7.34-6.55,0-10.44,5.76-10.44,13.47,0,7.06,3.46,12.89,10.3,12.89,4.25,0,8.14-2.81,9.29-7.56,.22-.86,.29-1.73,.29-2.74v-6.05Z"/><path class="cls-1" d="M845.65,186.84c.14,8.57,5.62,12.1,11.95,12.1,4.54,0,7.27-.79,9.65-1.8l1.08,4.54c-2.23,1.01-6.05,2.16-11.59,2.16-10.73,0-17.14-7.06-17.14-17.57s6.19-18.79,16.35-18.79c11.38,0,14.4,10.01,14.4,16.42,0,1.3-.14,2.3-.22,2.95h-24.48Zm18.58-4.54c.07-4.03-1.66-10.3-8.78-10.3-6.41,0-9.22,5.9-9.72,10.3h18.51Z"/><path class="cls-1" d="M897.49,203.11l-.5-4.39h-.22c-1.94,2.74-5.69,5.18-10.66,5.18-7.06,0-10.66-4.97-10.66-10.01,0-8.42,7.49-13.03,20.95-12.96v-.72c0-2.88-.79-8.06-7.92-8.06-3.24,0-6.62,1.01-9.07,2.59l-1.44-4.18c2.88-1.87,7.06-3.1,11.45-3.1,10.66,0,13.25,7.27,13.25,14.26v13.03c0,3.02,.14,5.98,.58,8.35h-5.76Zm-.94-17.79c-6.91-.14-14.76,1.08-14.76,7.85,0,4.1,2.74,6.05,5.98,6.05,4.54,0,7.42-2.88,8.42-5.83,.22-.65,.36-1.37,.36-2.02v-6.05Z"/><path class="cls-1" d="M942.99,151.99v42.12c0,3.1,.07,6.62,.29,9h-5.69l-.29-6.05h-.14c-1.94,3.89-6.19,6.84-11.88,6.84-8.42,0-14.91-7.13-14.91-17.71-.07-11.59,7.13-18.72,15.63-18.72,5.33,0,8.93,2.52,10.51,5.33h.14v-20.81h6.34Zm-6.34,30.46c0-.79-.07-1.87-.29-2.66-.94-4.03-4.39-7.34-9.14-7.34-6.55,0-10.44,5.76-10.44,13.47,0,7.06,3.46,12.89,10.3,12.89,4.25,0,8.14-2.81,9.29-7.56,.22-.86,.29-1.73,.29-2.74v-6.05Z"/><path class="cls-1" d="M952.28,199.44c0-2.59,1.8-4.46,4.25-4.46,2.59,0,4.25,1.87,4.25,4.46s-1.66,4.46-4.25,4.46-4.25-1.94-4.25-4.46Zm1.8-10.3l-1.01-34.56h6.91l-1.01,34.56h-4.9Z"/><path class="cls-1" d="M590.33,260.42c0-2.66,1.8-4.54,4.32-4.54s4.18,1.87,4.25,4.54c0,2.52-1.66,4.46-4.32,4.46-2.52,0-4.25-1.94-4.25-4.46Zm0,25.42c0-2.66,1.8-4.54,4.32-4.54s4.18,1.87,4.25,4.54c0,2.52-1.66,4.46-4.32,4.46-2.52,0-4.25-1.94-4.25-4.46Z"/><path class="cls-1" d="M620.5,239.54c-5.26,7.06-9.07,16.42-9.07,29.45s3.96,22.03,9.07,29.23h-4.97c-4.54-5.98-9.43-15.19-9.43-29.23,.07-14.19,4.9-23.4,9.43-29.45h4.97Z"/></g></svg>