<?xml version="1.0" encoding="UTF-8"?><svg id="Monster" xmlns="http://www.w3.org/2000/svg" width="55" height="55" viewBox="0 0 55 55"><defs><style>.cls-1{fill:#ef4136;stroke:#be1e2d;stroke-width:.25px;}.cls-1,.cls-2,.cls-3,.cls-4,.cls-5,.cls-6,.cls-7,.cls-8{stroke-miterlimit:10;}.cls-2{fill:#92c83e;}.cls-2,.cls-3,.cls-4,.cls-5,.cls-6,.cls-7,.cls-8{stroke:#3a4da1;}.cls-3{fill:#8fc73e;}.cls-4{fill:#8dc740;}.cls-5{fill:#8dc63f;}.cls-6{fill:#231f20;}.cls-7{fill:#95c93d;}.cls-8{fill:none;}</style></defs><path class="cls-3" d="M9.53,26.94s-7.86,.89-8.15,5.12-.73,7.93,0,12.82c.73,4.89,.58,2.52,.58,2.52,0,0-1.38,1.93-.98,3.11s3.45,2.82,3.45,2.82l-1.31-3.41,2.91,2.22s-.03-2.82-.82-4.3-.93-7.71-.93-7.71l.93-6.67,4.93-3.13-.62-3.39Z"/><path class="cls-7" d="M45.47,27.06s7.86,.89,8.15,5.12,.73,7.93,0,12.82-.58,2.52-.58,2.52c0,0,1.38,1.93,.98,3.11s-3.45,2.82-3.45,2.82l1.31-3.41-2.91,2.22s.03-2.82,.82-4.3,.93-7.71,.93-7.71l-.93-6.67-4.93-3.13,.62-3.39Z"/><path class="cls-4" d="M24.35,2h.07c11.57,0,20.97,9.4,20.97,20.97h0c0,8.33-6.76,15.09-15.09,15.09h-3.61c-9.58,0-17.36-7.78-17.36-17.36v-3.69c0-8.29,6.73-15.02,15.02-15.02Z"/><path class="cls-5" d="M22.17,38.06v5.3s-3.47-.38-5.71,.11-1.43,2.13-1.43,2.13h9.98v-7.54h-2.85Z"/><path class="cls-2" d="M32.04,38.06v5.3s3.47-.38,5.71,.11,1.43,2.13,1.43,2.13h-9.98v-7.54h2.85Z"/><path class="cls-8" d="M16.37,28.2c1.04,.69,18.66,4.68,21.98-.33"/><polygon class="cls-1" points="23.53 23.8 20.58 29.31 24.26 29.91 23.53 23.8"/><polygon class="cls-1" points="28.69 30.32 30.98 23.8 32.54 30.26 28.69 30.32"/><circle class="cls-8" cx="19.09" cy="12.74" r="5.17"/><circle class="cls-8" cx="34.54" cy="12.25" r="6.53"/><circle class="cls-6" cx="18.98" cy="12.84" r="3.52"/><circle class="cls-1" cx="34.53" cy="12.19" r="4.23"/><circle class="cls-6" cx="34.48" cy="12.07" r=".77"/></svg>