<?xml version="1.0" encoding="UTF-8"?><svg id="Snack" xmlns="http://www.w3.org/2000/svg" width="160" height="95" viewBox="0 0 160 95"><defs><style>.cls-1{fill:#5bba47;}.cls-2{fill:#3a4da1;}.cls-3{fill:#5fbb46;}.cls-4{fill:#fff;stroke:#3a4da1;stroke-miterlimit:10;stroke-width:.25px;}</style></defs><rect class="cls-3" x="22.34" y="27.48" width="112.96" height="44.04" transform="translate(-7.61 14.96) rotate(-10.34)"/><path class="cls-1" d="M130.43,17.7s-.73-9.33,3.25-11.03c3.97-1.7,9.64,4.22,7.94,5.51s10.78,1.79,6.24,5.51,7.67-.82,1,7.69c-6.67,8.51,6.79,8.51,2.04,11.91-4.74,3.4,3.77,12.2,3.77,12.2v6.59c6.24,.5,0,6.18,0,6.18h-7.94l-8.39-1.25-7.91-43.32Z"/><path class="cls-1" d="M20.2,37.92s-2.63-8.98-6.95-9.16-7.52,7.37-5.47,7.98-9.44,5.5-3.88,7.37c5.56,1.87-7.46,1.96,1.8,7.55,9.26,5.59-3.32,10.37,2.32,11.86,5.64,1.5,.81,12.74,.81,12.74l2.34,6.16c-5.65,2.69,2.19,5.78,2.19,5.78l7.42-2.82,7.4-4.15-7.99-43.3Z"/><path class="cls-2" d="M20.78,78.5c1.26-.35,1.96-1.2,2.96-1.95,.82-.62,1.73-1.05,2.53-1.72,1.66-1.4,3.33-2.83,4.95-4.28,1.75-1.57,3.38-3.27,5.14-4.82,.77-.68,1.63-1.14,2.45-1.76,.47-.35,1.01-.66,1.42-1.07,.09-.09,.71-.72,.43-.56l-1.26,.34-.83-.3c.22,.19,.46,.38,.7,.55,.21,.14,.4,.23,.62,.33,.66,.31,1.36,.49,2.05,.7,1.6,.5,3.19,1.04,4.83,1.44,3.26,.81,6.64,1.31,9.97,1.74s6.57,.53,9.82,1.08c1.46,.25,3.11,.64,4.3-.52,.51-.49,.58-1.09,.93-1.67-.22,.36,.2-.18,.2-.18,.34-.34,.66-.7,1-1.04,2.07-2.05,4.12-4.14,6.48-5.87,.46-.34,1.29-.71,1.61-1.18,.87-1.26-.26,.8-.2-.34,0,.03,.59,.39,.68,.45,1.36,.9,2.76,1.72,4.12,2.62,2.69,1.78,5.48,3.29,8.38,4.68,1.51,.72,2.8,1.63,4.45,.58,1.25-.79,2.38-2.09,3.45-3.11,1.28-1.23,2.46-2.56,3.67-3.87s2.42-2.44,3.51-3.75c.91-1.09,1.71-2.4,2.9-3.21,.7-.47,1.45-.85,2.13-1.36,.28-.21,.58-.42,.84-.65,.14-.12,.28-.26,.4-.39,.43-.37,.25-.37-.54,0l-2.41-1.84c.43,1.99,2.17,2.74,3.84,3.53,1.75,.84,3.64,1.25,5.38,2.12,1.88,.93,3.86,1.64,5.77,2.5,.97,.44,1.91,.94,2.86,1.41,.41,.2,.83,.38,1.25,.56,.3,.14,.62,.26,.93,.37,.4,.16,.46,.16,.17,0,1.02,.89,2.53,1,3.54,0,.9-.9,1.02-2.65,0-3.54-.8-.7-1.56-.97-2.53-1.34-.85-.32-1.64-.81-2.45-1.21-1.79-.88-3.65-1.59-5.48-2.37s-3.36-1.7-5.17-2.27c-.71-.23-1.42-.4-2.09-.73-.33-.16-.65-.35-.98-.51-.21-.09-.41-.18-.61-.28,.09,.18,.22,.32,.39,.42-.22-1-1.37-1.91-2.41-1.84-1.26,.09-2.1,.59-3,1.46-.69,.68-1.54,1.09-2.35,1.62-1.8,1.18-2.88,2.85-4.28,4.42-1.59,1.78-3.27,3.48-4.9,5.22-.83,.88-1.66,1.75-2.55,2.57-.62,.57-1.41,1.54-2.11,1.89l1.26-.34h-.26c.42,.12,.84,.23,1.26,.35-2.99-1.38-5.78-3.07-8.62-4.73-1.33-.78-2.61-1.66-3.93-2.48s-2.64-1.98-4.33-1.94-3.01,1.38-4.29,2.31c-1.36,1-2.67,2.04-3.9,3.19-1.16,1.08-2.28,2.21-3.41,3.33-.56,.55-1.08,1.12-1.55,1.75-.24,.31-.47,.62-.65,.97-.23,.45-.7,1.09,.07,.18l1.1-.64c.22-.07,.18,.06-.07-.04-.42-.16-.98-.17-1.43-.23-1.17-.17-2.35-.32-3.53-.44-1.99-.2-3.98-.34-5.96-.58-3.95-.48-7.96-1.16-11.77-2.33-.88-.27-1.75-.56-2.63-.83s-.94-.33-1.66-.8c-.9-.6-1.93-.77-2.95-.37-.8,.31-1.15,.93-1.74,1.46-.5,.45-1.12,.85-1.7,1.18-.94,.53-1.69,1.22-2.51,1.92-1.44,1.23-2.72,2.63-4.11,3.91-1.55,1.43-3.25,2.7-4.79,4.14-.67,.63-1.33,1.04-2.11,1.53-.45,.28-.87,.62-1.27,.96-.15,.13-.3,.26-.45,.4-.16,.15-.6,.35-.31,.26-3.09,.87-1.78,5.7,1.33,4.82h0Z"/><path class="cls-2" d="M18.26,62.66c1.33-1.31,2.76-2.48,4.31-3.53,1.75-1.17,3.37-2.45,5.03-3.73,1.49-1.15,3.11-2.25,4.7-3.27,1.7-1.08,3.22-2.43,4.92-3.54,.75-.49,1.54-.86,2.36-1.23,.43-.2,.86-.39,1.27-.63,.31-.18,.68-.58,1.01-.69-.46,.16,.09,.2,.37,.27,.57,.14,1.16,.19,1.74,.24,.96,.09,1.9,.21,2.85,.41,1.92,.4,3.73,1.05,5.54,1.81s3.8,1.24,5.75,1.74,4.03,1.08,6.04,1.6c1.78,.46,3.85,1.98,5.71,1.46,.9-.25,1.46-.91,2.04-1.58,.68-.79,1.41-1.52,2.13-2.28,.66-.69,1.27-1.44,1.96-2.1,.8-.76,1.69-1.4,2.45-2.21,.65-.7,1.27-1.43,1.92-2.13,.33-.36,2.04-1.76,1.94-2.22,.07,.35,.1-.22,.12-.18,.2,.37-1.6-.14-1.03,.37,.2,.18,.85,.22,1.11,.27,1.02,.17,2.05,.23,3.05,.53,1.91,.58,3.61,1.82,5.41,2.67s3.44,1.52,5.12,2.38c2.17,1.1,3.61,0,5.24-1.42,1.83-1.58,3.74-3.06,5.55-4.66,1.71-1.51,3.47-2.96,5.15-4.5,.82-.75,1.67-1.35,2.57-1.99s1.61-1.44,2.46-2.14h-3.54c.9,1.1,2.14,1.76,3.35,2.45s2.36,1.59,3.6,2.28c2.75,1.54,5.81,2.46,8.56,4.02s5.33-2.73,2.52-4.32c-2.65-1.5-5.52-2.44-8.21-3.83-1.15-.59-2.18-1.39-3.28-2.07s-2.22-1.09-3.02-2.07c-.91-1.12-2.58-.78-3.54,0-.58,.47-1.01,1.05-1.63,1.48-.89,.61-1.77,1.22-2.59,1.92-1.59,1.36-3.24,2.7-4.76,4.13s-3.18,2.84-4.82,4.2c-.71,.59-1.46,1.15-2.15,1.76-.11,.1-.25,.21-.35,.32-.7,.88,.02-1.58,1.47,.18-.1-.12-.46-.25-.6-.33-1.84-.97-3.81-1.66-5.65-2.61s-3.86-2.25-5.99-2.78c-.93-.23-1.9-.27-2.84-.45-.88-.18-1.7-.49-2.61-.4-1.88,.19-2.92,2.12-4.04,3.32-.7,.75-1.37,1.54-2.07,2.29s-1.53,1.36-2.29,2.06c-1.44,1.33-2.81,2.87-4.1,4.36-.14,.16-.33,.33-.43,.51l-.1,.12c-.42,.46,0,.38,1.28-.23-.15-.21-.8-.35-1.03-.45-1.04-.45-2.08-.78-3.18-1.05-2.02-.51-4.01-1.09-6.03-1.6-1.89-.47-3.74-.97-5.54-1.73s-3.77-1.42-5.76-1.79c-1.02-.19-2.05-.33-3.07-.44s-1.97-.48-2.99-.52-1.86,.33-2.69,.91c-.77,.54-1.61,.91-2.47,1.3-2.05,.94-3.87,2.37-5.63,3.75s-3.59,2.44-5.34,3.7-3.45,2.72-5.29,3.95c-1.96,1.31-3.82,2.77-5.5,4.43-2.29,2.26,1.24,5.8,3.54,3.54h0Z"/><g><path class="cls-4" d="M20.7,63.96c1.02,.4,2.46,.63,3.87,.37,2.1-.38,3.13-1.72,2.83-3.32-.27-1.49-1.28-2.18-3.58-2.62-2.76-.45-4.62-1.5-5.03-3.74-.45-2.48,1.27-4.7,4.36-5.26,1.63-.3,2.88-.14,3.66,.14l-.26,1.78c-.57-.19-1.72-.47-3.16-.2-2.17,.4-2.76,1.85-2.56,2.93,.27,1.49,1.37,2.04,3.72,2.49,2.88,.55,4.49,1.6,4.92,3.93,.45,2.46-.98,4.91-4.74,5.6-1.54,.28-3.29,.14-4.25-.27l.21-1.82Z"/><path class="cls-4" d="M31.61,56.6c-.27-1.46-.53-2.64-.78-3.71l1.87-.34,.45,1.94h.05c.6-1.56,1.79-2.63,3.66-2.97,2.76-.5,5.27,1.45,5.9,4.92,.75,4.11-1.38,6.6-4.07,7.09-1.51,.28-2.95-.14-3.84-1.15h-.05s1.13,6.22,1.13,6.22l-2.06,.38-2.26-12.37Zm2.61,2.67c.06,.31,.15,.58,.25,.83,.64,1.37,2.07,2.13,3.56,1.86,2.2-.4,3.14-2.43,2.66-5.05-.42-2.29-1.98-4.03-4.17-3.63-1.42,.26-2.55,1.52-2.67,3.15-.02,.27-.04,.59,.01,.88l.36,1.96Z"/><path class="cls-4" d="M52.77,60.69l-.43-1.41h-.07c-.47,1.03-1.55,2.05-3.18,2.35-2.31,.42-3.79-.99-4.09-2.64-.5-2.76,1.68-4.72,6.09-5.5l-.04-.24c-.17-.94-.74-2.6-3.08-2.17-1.06,.19-2.11,.73-2.82,1.39l-.72-1.28c.83-.79,2.13-1.44,3.57-1.7,3.49-.64,4.78,1.59,5.2,3.88l.78,4.27c.18,.99,.4,1.95,.69,2.71l-1.89,.34Zm-1.37-5.78c-2.28,.37-4.78,1.24-4.37,3.46,.25,1.35,1.26,1.82,2.32,1.63,1.49-.27,2.26-1.39,2.41-2.42,.03-.23,.04-.47,0-.68l-.36-1.98Z"/><path class="cls-4" d="M65.89,57.86c-.49,.38-1.63,.98-3.16,1.26-3.45,.63-6.12-1.3-6.75-4.79-.64-3.52,1.3-6.51,5.03-7.19,1.23-.22,2.37-.12,2.99,.06l-.18,1.69c-.55-.19-1.38-.31-2.51-.1-2.62,.48-3.68,2.67-3.25,5.06,.48,2.65,2.48,3.96,4.75,3.55,1.18-.22,1.9-.67,2.45-1.03l.64,1.49Z"/><path class="cls-4" d="M68.44,52.32c.56,2.8,2.57,3.63,4.64,3.25,1.49-.27,2.34-.69,3.06-1.17l.63,1.42c-.67,.46-1.85,1.07-3.67,1.4-3.52,.64-6.04-1.29-6.67-4.74-.63-3.45,.91-6.53,4.23-7.14,3.73-.68,5.32,2.42,5.71,4.52,.08,.42,.09,.76,.11,.98l-8.03,1.47Zm5.82-2.6c-.22-1.33-1.16-3.28-3.5-2.85-2.1,.38-2.67,2.49-2.57,3.96l6.07-1.11Z"/><path class="cls-4" d="M79.42,53.24c1.02,.4,2.46,.62,3.87,.37,2.1-.38,3.13-1.72,2.83-3.32-.27-1.49-1.28-2.18-3.58-2.62-2.76-.45-4.62-1.5-5.03-3.74-.45-2.48,1.27-4.7,4.36-5.26,1.63-.3,2.88-.14,3.66,.14l-.26,1.78c-.57-.19-1.72-.47-3.16-.2-2.17,.4-2.76,1.85-2.56,2.93,.27,1.49,1.37,2.04,3.73,2.49,2.88,.55,4.49,1.6,4.91,3.93,.45,2.46-.98,4.91-4.74,5.6-1.54,.28-3.29,.14-4.25-.27l.21-1.82Z"/><path class="cls-4" d="M90.21,45.25c-.22-1.18-.42-2.14-.66-3.08l1.84-.34,.46,1.87h.05c.37-1.2,1.5-2.5,3.39-2.85,1.58-.29,4.21,.21,4.92,4.13l1.25,6.82-2.08,.38-1.2-6.59c-.34-1.84-1.3-3.25-3.26-2.89-1.37,.25-2.26,1.41-2.4,2.63-.05,.28-.03,.64,.03,.99l1.25,6.87-2.08,.38-1.52-8.33Z"/><path class="cls-4" d="M111.16,50.03l-.43-1.41h-.07c-.47,1.03-1.55,2.05-3.18,2.35-2.31,.42-3.79-.99-4.09-2.64-.5-2.76,1.67-4.72,6.09-5.5l-.04-.24c-.17-.94-.74-2.6-3.08-2.17-1.06,.19-2.11,.73-2.82,1.39l-.72-1.28c.83-.79,2.13-1.44,3.57-1.7,3.5-.64,4.78,1.59,5.2,3.88l.78,4.27c.18,.99,.4,1.95,.69,2.71l-1.89,.34Zm-1.37-5.78c-2.28,.37-4.78,1.24-4.37,3.46,.25,1.35,1.26,1.82,2.32,1.63,1.49-.27,2.26-1.39,2.41-2.42,.03-.23,.04-.47,0-.68l-.36-1.98Z"/><path class="cls-4" d="M124.28,47.2c-.49,.38-1.63,.98-3.16,1.26-3.45,.63-6.12-1.3-6.75-4.79-.64-3.52,1.3-6.51,5.03-7.19,1.23-.22,2.37-.12,2.99,.06l-.18,1.69c-.55-.19-1.37-.31-2.51-.1-2.62,.48-3.68,2.67-3.25,5.06,.48,2.65,2.48,3.96,4.75,3.55,1.18-.22,1.9-.67,2.45-1.03l.64,1.49Z"/><path class="cls-4" d="M127.71,40.62h.05c.21-.46,.52-1.03,.78-1.49l2.63-4.55,2.5-.46-3.56,5.5,6.26,5.81-2.53,.46-4.94-4.76-.85,1.37,.79,4.3-2.05,.38-3.06-16.76,2.05-.38,1.93,10.58Z"/></g></svg>