<?xml version="1.0" encoding="UTF-8"?><svg id="Start_screen" xmlns="http://www.w3.org/2000/svg" width="1880" height="900" viewBox="0 0 1880 900"><defs><style>.cls-1{fill:#5d0a0c;stroke:#aa1e23;stroke-width:5px;}.cls-1,.cls-2,.cls-3{stroke-miterlimit:10;}.cls-2{stroke-width:.25px;}.cls-2,.cls-3{fill:#f1f2f2;stroke:#f15a29;}.cls-3{stroke-width:.5px;}.cls-4{fill:#262262;stroke:#27aae1;stroke-linejoin:round;stroke-width:18px;}</style></defs><rect class="cls-4" x="23.71" y="25.63" width="1832.58" height="846.13"/><g><path class="cls-3" d="M789.48,167.83h5.69l21.67,50.98h-7.06l-5.18-12.53h-25.49l-5.26,12.53h-6.84l22.46-50.98Zm2.74,7.78h-.14l-10.58,25.06h20.81l-10.08-25.06Z"/><path class="cls-3" d="M823.32,209.95c1.1,1.39,2.32,2.5,3.64,3.31,1.32,.82,2.99,1.22,5,1.22,.86,0,1.74-.1,2.63-.29,.89-.19,1.69-.5,2.41-.94s1.3-.97,1.73-1.62,.65-1.43,.65-2.34-.2-1.66-.61-2.23c-.41-.58-.95-1.07-1.62-1.48-.67-.41-1.44-.73-2.3-.97-.86-.24-1.75-.46-2.66-.65-1.58-.34-3.1-.72-4.54-1.15s-2.7-1-3.78-1.69c-1.08-.7-1.94-1.6-2.59-2.7-.65-1.1-.97-2.52-.97-4.25,0-1.63,.36-3.07,1.08-4.32,.72-1.25,1.68-2.28,2.88-3.1,1.2-.82,2.54-1.44,4.03-1.87,1.49-.43,3.02-.65,4.61-.65,2.4,0,4.62,.48,6.66,1.44,2.04,.96,3.64,2.52,4.79,4.68l-4.68,3.1c-.72-1.2-1.67-2.17-2.84-2.92-1.18-.74-2.6-1.12-4.28-1.12-.77,0-1.55,.1-2.34,.29-.79,.19-1.5,.48-2.12,.86-.62,.38-1.14,.88-1.55,1.48-.41,.6-.61,1.28-.61,2.05,0,.72,.23,1.33,.68,1.84,.46,.5,1.08,.95,1.87,1.33,.79,.38,1.7,.72,2.74,1.01,1.03,.29,2.1,.53,3.2,.72,1.49,.29,2.9,.66,4.25,1.12,1.34,.46,2.52,1.07,3.53,1.84,1.01,.77,1.8,1.73,2.38,2.88,.58,1.15,.86,2.57,.86,4.25,0,1.92-.38,3.55-1.15,4.9-.77,1.34-1.79,2.44-3.06,3.28-1.27,.84-2.71,1.45-4.32,1.84-1.61,.38-3.25,.58-4.93,.58-2.88,0-5.36-.44-7.45-1.33-2.09-.89-3.97-2.53-5.65-4.93l4.46-3.46Z"/><path class="cls-3" d="M871.7,189.86h-9.94v16.85c0,1.1,.02,2.12,.07,3.06,.05,.94,.24,1.75,.58,2.45,.33,.7,.84,1.25,1.51,1.66,.67,.41,1.63,.61,2.88,.61,.82,0,1.66-.1,2.52-.29,.86-.19,1.68-.48,2.45-.86l.22,5.11c-.96,.43-2.03,.74-3.2,.94-1.18,.19-2.29,.29-3.35,.29-2.02,0-3.62-.26-4.82-.79-1.2-.53-2.14-1.27-2.81-2.23-.67-.96-1.12-2.15-1.33-3.56-.22-1.42-.32-2.99-.32-4.72v-18.5h-7.34v-4.75h7.34v-9.58h5.62v9.58h9.94v4.75Z"/><path class="cls-3" d="M878.61,193.1c0-1.54-.05-2.98-.14-4.32-.1-1.34-.14-2.57-.14-3.67h5.33c0,.91,.02,1.82,.07,2.74,.05,.91,.07,1.85,.07,2.81h.14c.38-.82,.92-1.61,1.62-2.38,.7-.77,1.52-1.45,2.48-2.05,.96-.6,2.04-1.08,3.24-1.44,1.2-.36,2.5-.54,3.89-.54,.38,0,.77,.02,1.15,.07,.38,.05,.77,.14,1.15,.29l-.36,5.69c-.96-.29-1.97-.43-3.02-.43-3.46,0-5.96,1.12-7.52,3.35-1.56,2.23-2.34,5.29-2.34,9.18v16.42h-5.62v-25.7Z"/><path class="cls-3" d="M900.71,201.96c0-2.64,.46-5.04,1.37-7.2,.91-2.16,2.16-4.02,3.74-5.58,1.58-1.56,3.48-2.77,5.69-3.64,2.21-.86,4.61-1.3,7.2-1.3s4.99,.43,7.2,1.3c2.21,.86,4.1,2.08,5.69,3.64,1.58,1.56,2.83,3.42,3.74,5.58,.91,2.16,1.37,4.56,1.37,7.2s-.46,5.04-1.37,7.2c-.91,2.16-2.16,4.02-3.74,5.58-1.58,1.56-3.48,2.77-5.69,3.64-2.21,.86-4.61,1.3-7.2,1.3s-4.99-.43-7.2-1.3c-2.21-.86-4.1-2.08-5.69-3.64-1.58-1.56-2.83-3.42-3.74-5.58-.91-2.16-1.37-4.56-1.37-7.2Zm6.05,0c0,1.78,.28,3.42,.83,4.93,.55,1.51,1.36,2.83,2.41,3.96,1.06,1.13,2.32,2.02,3.78,2.66,1.46,.65,3.11,.97,4.93,.97s3.47-.32,4.93-.97c1.46-.65,2.72-1.54,3.78-2.66,1.06-1.13,1.86-2.45,2.41-3.96,.55-1.51,.83-3.16,.83-4.93s-.28-3.42-.83-4.93c-.55-1.51-1.36-2.83-2.41-3.96-1.06-1.13-2.32-2.02-3.78-2.66-1.46-.65-3.11-.97-4.93-.97s-3.47,.32-4.93,.97c-1.46,.65-2.73,1.54-3.78,2.66-1.06,1.13-1.86,2.45-2.41,3.96-.55,1.51-.83,3.16-.83,4.93Z"/><path class="cls-3" d="M970.63,176.83c-1.01-1.63-2.35-2.82-4.03-3.56-1.68-.74-3.43-1.12-5.26-1.12-1.34,0-2.66,.17-3.96,.5-1.3,.34-2.46,.84-3.49,1.51-1.03,.67-1.86,1.56-2.48,2.66-.62,1.1-.94,2.4-.94,3.89,0,1.15,.18,2.17,.54,3.06,.36,.89,.95,1.69,1.76,2.41,.82,.72,1.92,1.39,3.31,2.02,1.39,.62,3.1,1.25,5.11,1.87,1.97,.62,3.88,1.3,5.72,2.02,1.85,.72,3.48,1.63,4.9,2.74,1.42,1.1,2.54,2.48,3.38,4.14,.84,1.66,1.26,3.73,1.26,6.23s-.5,4.75-1.51,6.62c-1.01,1.87-2.34,3.42-4,4.64-1.66,1.22-3.56,2.14-5.72,2.74s-4.39,.9-6.7,.9c-1.49,0-2.98-.13-4.46-.4-1.49-.26-2.92-.67-4.28-1.22-1.37-.55-2.65-1.27-3.85-2.16-1.2-.89-2.23-1.98-3.1-3.28l5.18-4.25c1.1,1.87,2.64,3.29,4.61,4.25,1.97,.96,4.06,1.44,6.26,1.44,1.3,0,2.6-.19,3.92-.58,1.32-.38,2.51-.95,3.56-1.69,1.06-.74,1.92-1.67,2.59-2.77,.67-1.1,1.01-2.38,1.01-3.82,0-1.58-.26-2.87-.79-3.85-.53-.98-1.34-1.84-2.45-2.56-1.1-.72-2.5-1.37-4.18-1.94-1.68-.58-3.65-1.25-5.9-2.02-1.82-.58-3.5-1.24-5.04-1.98-1.54-.74-2.87-1.66-4-2.74-1.13-1.08-2.02-2.38-2.66-3.89-.65-1.51-.97-3.32-.97-5.44,0-2.45,.48-4.58,1.44-6.41,.96-1.82,2.26-3.35,3.89-4.57,1.63-1.22,3.48-2.15,5.54-2.77,2.06-.62,4.22-.94,6.48-.94,2.88,0,5.51,.44,7.88,1.33,2.38,.89,4.5,2.44,6.37,4.64l-4.97,4.32Z"/><path class="cls-3" d="M985.46,193.1c0-1.54-.05-2.98-.14-4.32-.1-1.34-.14-2.57-.14-3.67h5.33c0,.91,.02,1.82,.07,2.74,.05,.91,.07,1.85,.07,2.81h.14c.38-.82,.92-1.61,1.62-2.38,.7-.77,1.52-1.45,2.48-2.05,.96-.6,2.04-1.08,3.24-1.44,1.2-.36,2.5-.54,3.89-.54,2.21,0,4.12,.34,5.72,1.01,1.61,.67,2.94,1.61,4,2.81,1.06,1.2,1.84,2.65,2.34,4.36,.5,1.7,.76,3.56,.76,5.58v20.81h-5.62v-20.23c0-2.83-.62-5.06-1.87-6.7-1.25-1.63-3.19-2.45-5.83-2.45-1.82,0-3.4,.31-4.72,.94-1.32,.62-2.4,1.51-3.24,2.66-.84,1.15-1.46,2.52-1.87,4.1-.41,1.58-.61,3.34-.61,5.26v16.42h-5.62v-25.7Z"/><path class="cls-3" d="M1025.06,189.43c1.73-1.78,3.78-3.08,6.16-3.92,2.38-.84,4.79-1.26,7.24-1.26,4.99,0,8.59,1.18,10.8,3.53,2.21,2.35,3.31,5.93,3.31,10.73v14.47c0,.96,.05,1.96,.14,2.99,.1,1.03,.22,1.98,.36,2.84h-5.4c-.19-.77-.3-1.62-.32-2.56-.02-.94-.04-1.76-.04-2.48h-.14c-1.1,1.73-2.58,3.14-4.43,4.25-1.85,1.1-4.07,1.66-6.66,1.66-1.73,0-3.35-.22-4.86-.65-1.51-.43-2.83-1.07-3.96-1.91-1.13-.84-2.03-1.88-2.7-3.13-.67-1.25-1.01-2.69-1.01-4.32,0-2.78,.72-4.97,2.16-6.55s3.23-2.76,5.36-3.53c2.14-.77,4.44-1.25,6.91-1.44,2.47-.19,4.74-.29,6.8-.29h2.16v-1.01c0-2.45-.73-4.3-2.2-5.54-1.46-1.25-3.52-1.87-6.16-1.87-1.82,0-3.61,.3-5.36,.9-1.75,.6-3.3,1.52-4.64,2.77l-3.53-3.67Zm16.27,13.18c-3.6,0-6.46,.5-8.57,1.51-2.11,1.01-3.17,2.66-3.17,4.97,0,2.11,.71,3.61,2.12,4.5,1.42,.89,3.18,1.33,5.29,1.33,1.63,0,3.06-.28,4.28-.83,1.22-.55,2.24-1.28,3.06-2.2,.82-.91,1.44-1.98,1.87-3.2,.43-1.22,.67-2.53,.72-3.92v-2.16h-5.62Z"/><path class="cls-3" d="M1086.83,193.53c-1.2-1.44-2.5-2.48-3.89-3.13-1.39-.65-2.93-.97-4.61-.97-1.87,0-3.53,.32-4.97,.97s-2.63,1.55-3.56,2.7c-.94,1.15-1.64,2.48-2.12,4-.48,1.51-.72,3.13-.72,4.86s.28,3.35,.83,4.86c.55,1.51,1.32,2.84,2.3,4,.98,1.15,2.17,2.05,3.56,2.7,1.39,.65,2.95,.97,4.68,.97,3.7,0,6.55-1.39,8.57-4.18l4.18,3.96c-1.63,1.87-3.55,3.24-5.76,4.1-2.21,.86-4.54,1.3-6.98,1.3-2.59,0-4.97-.43-7.13-1.3-2.16-.86-4-2.09-5.51-3.67-1.51-1.58-2.69-3.46-3.53-5.62-.84-2.16-1.26-4.54-1.26-7.13s.42-4.9,1.26-7.06c.84-2.16,2.03-4.03,3.56-5.62,1.54-1.58,3.37-2.82,5.51-3.71,2.14-.89,4.5-1.33,7.09-1.33s4.86,.43,7.09,1.3c2.23,.86,4.19,2.21,5.87,4.03l-4.46,3.96Z"/><path class="cls-3" d="M1097.56,164.37h5.62v35.57l15.34-14.83h7.99l-16.27,15.34,17.93,18.36h-8.28l-16.7-17.71v17.71h-5.62v-54.43Z"/><path class="cls-3" d="M1134.28,209.95c1.1,1.39,2.32,2.5,3.64,3.31,1.32,.82,2.99,1.22,5,1.22,.86,0,1.74-.1,2.63-.29,.89-.19,1.69-.5,2.41-.94s1.3-.97,1.73-1.62,.65-1.43,.65-2.34-.2-1.66-.61-2.23c-.41-.58-.95-1.07-1.62-1.48-.67-.41-1.44-.73-2.3-.97-.86-.24-1.75-.46-2.66-.65-1.58-.34-3.1-.72-4.54-1.15s-2.7-1-3.78-1.69c-1.08-.7-1.94-1.6-2.59-2.7-.65-1.1-.97-2.52-.97-4.25,0-1.63,.36-3.07,1.08-4.32,.72-1.25,1.68-2.28,2.88-3.1,1.2-.82,2.54-1.44,4.03-1.87,1.49-.43,3.02-.65,4.61-.65,2.4,0,4.62,.48,6.66,1.44,2.04,.96,3.64,2.52,4.79,4.68l-4.68,3.1c-.72-1.2-1.67-2.17-2.84-2.92-1.18-.74-2.6-1.12-4.28-1.12-.77,0-1.55,.1-2.34,.29-.79,.19-1.5,.48-2.12,.86-.62,.38-1.14,.88-1.55,1.48-.41,.6-.61,1.28-.61,2.05,0,.72,.23,1.33,.68,1.84,.46,.5,1.08,.95,1.87,1.33,.79,.38,1.7,.72,2.74,1.01,1.03,.29,2.1,.53,3.2,.72,1.49,.29,2.9,.66,4.25,1.12,1.34,.46,2.52,1.07,3.53,1.84,1.01,.77,1.8,1.73,2.38,2.88,.58,1.15,.86,2.57,.86,4.25,0,1.92-.38,3.55-1.15,4.9-.77,1.34-1.79,2.44-3.06,3.28-1.27,.84-2.71,1.45-4.32,1.84-1.61,.38-3.25,.58-4.93,.58-2.88,0-5.36-.44-7.45-1.33-2.09-.89-3.97-2.53-5.65-4.93l4.46-3.46Z"/></g><g><path class="cls-2" d="M333.59,307.18h-7.38v-2.66h17.96v2.66h-7.42v21.6h-3.17v-21.6Z"/><path class="cls-2" d="M346.51,303.22h3.17v10.87h.07c.5-.9,1.3-1.69,2.27-2.23,.94-.54,2.05-.9,3.24-.9,2.34,0,6.08,1.44,6.08,7.45v10.37h-3.17v-10.01c0-2.81-1.04-5.18-4.03-5.18-2.05,0-3.67,1.44-4.25,3.17-.18,.43-.22,.9-.22,1.51v10.51h-3.17v-25.56Z"/><path class="cls-2" d="M368.25,320.64c.07,4.28,2.81,6.05,5.98,6.05,2.27,0,3.64-.4,4.82-.9l.54,2.27c-1.12,.5-3.02,1.08-5.8,1.08-5.36,0-8.57-3.53-8.57-8.78s3.1-9.4,8.17-9.4c5.69,0,7.2,5,7.2,8.21,0,.65-.07,1.15-.11,1.48h-12.24Zm9.29-2.27c.04-2.02-.83-5.15-4.39-5.15-3.2,0-4.61,2.95-4.86,5.15h9.25Z"/><path class="cls-2" d="M401.8,328.78l-.25-2.2h-.11c-.97,1.37-2.84,2.59-5.33,2.59-3.53,0-5.33-2.48-5.33-5,0-4.21,3.74-6.52,10.47-6.48v-.36c0-1.44-.4-4.03-3.96-4.03-1.62,0-3.31,.5-4.54,1.3l-.72-2.09c1.44-.94,3.53-1.55,5.72-1.55,5.33,0,6.62,3.64,6.62,7.13v6.52c0,1.51,.07,2.99,.29,4.18h-2.88Zm-.47-8.89c-3.46-.07-7.38,.54-7.38,3.92,0,2.05,1.37,3.02,2.99,3.02,2.27,0,3.71-1.44,4.21-2.92,.11-.32,.18-.68,.18-1.01v-3.02Z"/><path class="cls-2" d="M409.08,325.54c.94,.61,2.59,1.26,4.18,1.26,2.3,0,3.38-1.15,3.38-2.59,0-1.51-.9-2.34-3.24-3.2-3.13-1.12-4.61-2.84-4.61-4.93,0-2.81,2.27-5.11,6.01-5.11,1.76,0,3.31,.5,4.28,1.08l-.79,2.3c-.68-.43-1.94-1.01-3.56-1.01-1.87,0-2.92,1.08-2.92,2.38,0,1.44,1.04,2.09,3.31,2.95,3.02,1.15,4.57,2.66,4.57,5.26,0,3.06-2.38,5.22-6.52,5.22-1.91,0-3.67-.47-4.9-1.19l.79-2.41Z"/><path class="cls-2" d="M427.58,306.35v5h4.54v2.41h-4.54v9.4c0,2.16,.61,3.38,2.38,3.38,.83,0,1.44-.11,1.84-.22l.14,2.38c-.61,.25-1.58,.43-2.81,.43-1.48,0-2.66-.47-3.42-1.33-.9-.94-1.22-2.48-1.22-4.54v-9.5h-2.7v-2.41h2.7v-4.18l3.1-.83Z"/><path class="cls-2" d="M435.68,316.79c0-2.05-.04-3.82-.14-5.44h2.77l.11,3.42h.14c.79-2.34,2.7-3.82,4.82-3.82,.36,0,.61,.04,.9,.11v2.99c-.32-.07-.65-.11-1.08-.11-2.23,0-3.82,1.69-4.25,4.07-.07,.43-.14,.94-.14,1.48v9.29h-3.13v-11.99Z"/><path class="cls-2" d="M462.86,319.92c0,6.44-4.46,9.25-8.67,9.25-4.72,0-8.35-3.46-8.35-8.96,0-5.83,3.82-9.25,8.64-9.25s8.39,3.64,8.39,8.96Zm-13.82,.18c0,3.82,2.2,6.69,5.29,6.69s5.29-2.84,5.29-6.77c0-2.95-1.48-6.69-5.22-6.69s-5.36,3.46-5.36,6.77Z"/><path class="cls-2" d="M466.86,316.07c0-1.8-.04-3.28-.14-4.72h2.81l.18,2.88h.07c.86-1.66,2.88-3.28,5.76-3.28,2.41,0,6.16,1.44,6.16,7.42v10.4h-3.17v-10.04c0-2.81-1.04-5.15-4.03-5.15-2.09,0-3.71,1.48-4.25,3.24-.14,.4-.22,.94-.22,1.48v10.47h-3.17v-12.71Z"/><path class="cls-2" d="M496.48,328.78l-.25-2.2h-.11c-.97,1.37-2.84,2.59-5.33,2.59-3.53,0-5.33-2.48-5.33-5,0-4.21,3.74-6.52,10.47-6.48v-.36c0-1.44-.4-4.03-3.96-4.03-1.62,0-3.31,.5-4.54,1.3l-.72-2.09c1.44-.94,3.53-1.55,5.72-1.55,5.33,0,6.62,3.64,6.62,7.13v6.52c0,1.51,.07,2.99,.29,4.18h-2.88Zm-.47-8.89c-3.46-.07-7.38,.54-7.38,3.92,0,2.05,1.37,3.02,2.99,3.02,2.27,0,3.71-1.44,4.21-2.92,.11-.32,.18-.68,.18-1.01v-3.02Z"/><path class="cls-2" d="M518.77,324.03c0,1.8,.04,3.38,.14,4.75h-2.81l-.18-2.84h-.07c-.83,1.4-2.66,3.24-5.76,3.24-2.74,0-6.01-1.51-6.01-7.63v-10.19h3.17v9.65c0,3.31,1.01,5.54,3.89,5.54,2.12,0,3.6-1.48,4.18-2.88,.18-.47,.29-1.04,.29-1.62v-10.69h3.17v12.67Z"/><path class="cls-2" d="M527.84,306.35v5h4.54v2.41h-4.54v9.4c0,2.16,.61,3.38,2.38,3.38,.83,0,1.44-.11,1.84-.22l.14,2.38c-.61,.25-1.58,.43-2.81,.43-1.48,0-2.66-.47-3.42-1.33-.9-.94-1.22-2.48-1.22-4.54v-9.5h-2.7v-2.41h2.7v-4.18l3.1-.83Z"/><path class="cls-2" d="M543.57,303.22h3.17v25.56h-3.17v-25.56Z"/><path class="cls-2" d="M567.83,319.92c0,6.44-4.46,9.25-8.67,9.25-4.72,0-8.35-3.46-8.35-8.96,0-5.83,3.82-9.25,8.64-9.25s8.39,3.64,8.39,8.96Zm-13.82,.18c0,3.82,2.2,6.69,5.29,6.69s5.29-2.84,5.29-6.77c0-2.95-1.48-6.69-5.22-6.69s-5.36,3.46-5.36,6.77Z"/><path class="cls-2" d="M571.4,325.54c.94,.61,2.59,1.26,4.18,1.26,2.3,0,3.38-1.15,3.38-2.59,0-1.51-.9-2.34-3.24-3.2-3.13-1.12-4.61-2.84-4.61-4.93,0-2.81,2.27-5.11,6.01-5.11,1.76,0,3.31,.5,4.28,1.08l-.79,2.3c-.68-.43-1.94-1.01-3.56-1.01-1.87,0-2.92,1.08-2.92,2.38,0,1.44,1.04,2.09,3.31,2.95,3.02,1.15,4.57,2.66,4.57,5.26,0,3.06-2.38,5.22-6.52,5.22-1.91,0-3.67-.47-4.9-1.19l.79-2.41Z"/><path class="cls-2" d="M589.9,306.35v5h4.54v2.41h-4.54v9.4c0,2.16,.61,3.38,2.38,3.38,.83,0,1.44-.11,1.84-.22l.14,2.38c-.61,.25-1.58,.43-2.81,.43-1.48,0-2.66-.47-3.42-1.33-.9-.94-1.22-2.48-1.22-4.54v-9.5h-2.7v-2.41h2.7v-4.18l3.1-.83Z"/><path class="cls-2" d="M615.28,328.78l-.25-2.2h-.11c-.97,1.37-2.84,2.59-5.33,2.59-3.53,0-5.33-2.48-5.33-5,0-4.21,3.74-6.52,10.47-6.48v-.36c0-1.44-.4-4.03-3.96-4.03-1.62,0-3.31,.5-4.54,1.3l-.72-2.09c1.44-.94,3.53-1.55,5.72-1.55,5.33,0,6.62,3.64,6.62,7.13v6.52c0,1.51,.07,2.99,.29,4.18h-2.88Zm-.47-8.89c-3.46-.07-7.38,.54-7.38,3.92,0,2.05,1.37,3.02,2.99,3.02,2.27,0,3.71-1.44,4.21-2.92,.11-.32,.18-.68,.18-1.01v-3.02Z"/><path class="cls-2" d="M622.99,303.22h3.17v25.56h-3.17v-25.56Z"/><path class="cls-2" d="M631.48,303.22h3.17v25.56h-3.17v-25.56Z"/><path class="cls-2" d="M647.61,303.22h3.17v10.87h.07c.5-.9,1.3-1.69,2.27-2.23,.94-.54,2.05-.9,3.24-.9,2.34,0,6.08,1.44,6.08,7.45v10.37h-3.17v-10.01c0-2.81-1.04-5.18-4.03-5.18-2.05,0-3.67,1.44-4.25,3.17-.18,.43-.22,.9-.22,1.51v10.51h-3.17v-25.56Z"/><path class="cls-2" d="M671.12,306.46c.04,1.08-.76,1.94-2.02,1.94-1.12,0-1.91-.86-1.91-1.94s.83-1.98,1.98-1.98,1.94,.86,1.94,1.98Zm-3.53,22.32v-17.42h3.17v17.42h-3.17Z"/><path class="cls-2" d="M675.58,325.54c.94,.61,2.59,1.26,4.18,1.26,2.3,0,3.38-1.15,3.38-2.59,0-1.51-.9-2.34-3.24-3.2-3.13-1.12-4.61-2.84-4.61-4.93,0-2.81,2.27-5.11,6.01-5.11,1.76,0,3.31,.5,4.28,1.08l-.79,2.3c-.68-.43-1.94-1.01-3.56-1.01-1.87,0-2.92,1.08-2.92,2.38,0,1.44,1.04,2.09,3.31,2.95,3.02,1.15,4.57,2.66,4.57,5.26,0,3.06-2.38,5.22-6.52,5.22-1.91,0-3.67-.47-4.9-1.19l.79-2.41Z"/><path class="cls-2" d="M697.47,325.54c.94,.61,2.59,1.26,4.18,1.26,2.3,0,3.38-1.15,3.38-2.59,0-1.51-.9-2.34-3.24-3.2-3.13-1.12-4.61-2.84-4.61-4.93,0-2.81,2.27-5.11,6.01-5.11,1.76,0,3.31,.5,4.28,1.08l-.79,2.3c-.68-.43-1.94-1.01-3.56-1.01-1.87,0-2.92,1.08-2.92,2.38,0,1.44,1.04,2.09,3.31,2.95,3.02,1.15,4.57,2.66,4.57,5.26,0,3.06-2.38,5.22-6.52,5.22-1.91,0-3.67-.47-4.9-1.19l.79-2.41Z"/><path class="cls-2" d="M712.16,317.04c0-2.23-.07-4.03-.14-5.69h2.84l.14,2.99h.07c1.3-2.12,3.35-3.38,6.19-3.38,4.21,0,7.38,3.56,7.38,8.85,0,6.26-3.82,9.36-7.92,9.36-2.3,0-4.32-1.01-5.36-2.74h-.07v9.47h-3.13v-18.86Zm3.13,4.64c0,.47,.07,.9,.14,1.3,.58,2.2,2.48,3.71,4.75,3.71,3.35,0,5.29-2.74,5.29-6.73,0-3.49-1.84-6.48-5.18-6.48-2.16,0-4.18,1.55-4.79,3.92-.11,.4-.22,.86-.22,1.3v2.99Z"/><path class="cls-2" d="M742.29,328.78l-.25-2.2h-.11c-.97,1.37-2.84,2.59-5.33,2.59-3.53,0-5.33-2.48-5.33-5,0-4.21,3.74-6.52,10.47-6.48v-.36c0-1.44-.4-4.03-3.96-4.03-1.62,0-3.31,.5-4.54,1.3l-.72-2.09c1.44-.94,3.53-1.55,5.72-1.55,5.33,0,6.62,3.64,6.62,7.13v6.52c0,1.51,.07,2.99,.29,4.18h-2.88Zm-.47-8.89c-3.46-.07-7.38,.54-7.38,3.92,0,2.05,1.37,3.02,2.99,3.02,2.27,0,3.71-1.44,4.21-2.92,.11-.32,.18-.68,.18-1.01v-3.02Z"/><path class="cls-2" d="M762.41,328.13c-.83,.43-2.66,1.01-5,1.01-5.26,0-8.68-3.56-8.68-8.89s3.67-9.25,9.36-9.25c1.87,0,3.53,.47,4.39,.9l-.72,2.45c-.76-.43-1.94-.83-3.67-.83-4,0-6.16,2.95-6.16,6.59,0,4.03,2.59,6.52,6.05,6.52,1.8,0,2.99-.47,3.89-.86l.54,2.38Z"/><path class="cls-2" d="M767.67,320.64c.07,4.28,2.81,6.05,5.98,6.05,2.27,0,3.64-.4,4.82-.9l.54,2.27c-1.12,.5-3.02,1.08-5.8,1.08-5.36,0-8.57-3.53-8.57-8.78s3.1-9.4,8.17-9.4c5.69,0,7.2,5,7.2,8.21,0,.65-.07,1.15-.11,1.48h-12.24Zm9.29-2.27c.04-2.02-.83-5.15-4.39-5.15-3.2,0-4.61,2.95-4.86,5.15h9.25Z"/><path class="cls-2" d="M791.14,325.54c.94,.61,2.59,1.26,4.18,1.26,2.3,0,3.38-1.15,3.38-2.59,0-1.51-.9-2.34-3.24-3.2-3.13-1.12-4.61-2.84-4.61-4.93,0-2.81,2.27-5.11,6.01-5.11,1.76,0,3.31,.5,4.28,1.08l-.79,2.3c-.68-.43-1.94-1.01-3.56-1.01-1.87,0-2.92,1.08-2.92,2.38,0,1.44,1.04,2.09,3.31,2.95,3.02,1.15,4.57,2.66,4.57,5.26,0,3.06-2.38,5.22-6.52,5.22-1.91,0-3.67-.47-4.9-1.19l.79-2.41Z"/><path class="cls-2" d="M805.83,316.07c0-1.8-.04-3.28-.14-4.72h2.81l.18,2.88h.07c.86-1.66,2.88-3.28,5.76-3.28,2.41,0,6.16,1.44,6.16,7.42v10.4h-3.17v-10.04c0-2.81-1.04-5.15-4.03-5.15-2.09,0-3.71,1.48-4.25,3.24-.14,.4-.22,.94-.22,1.48v10.47h-3.17v-12.71Z"/><path class="cls-2" d="M835.45,328.78l-.25-2.2h-.11c-.97,1.37-2.84,2.59-5.33,2.59-3.53,0-5.33-2.48-5.33-5,0-4.21,3.74-6.52,10.47-6.48v-.36c0-1.44-.4-4.03-3.96-4.03-1.62,0-3.31,.5-4.54,1.3l-.72-2.09c1.44-.94,3.53-1.55,5.72-1.55,5.33,0,6.62,3.64,6.62,7.13v6.52c0,1.51,.07,2.99,.29,4.18h-2.88Zm-.47-8.89c-3.46-.07-7.38,.54-7.38,3.92,0,2.05,1.37,3.02,2.99,3.02,2.27,0,3.71-1.44,4.21-2.92,.11-.32,.18-.68,.18-1.01v-3.02Z"/><path class="cls-2" d="M855.58,328.13c-.83,.43-2.66,1.01-5,1.01-5.26,0-8.68-3.56-8.68-8.89s3.67-9.25,9.36-9.25c1.87,0,3.53,.47,4.39,.9l-.72,2.45c-.76-.43-1.94-.83-3.67-.83-4,0-6.16,2.95-6.16,6.59,0,4.03,2.59,6.52,6.05,6.52,1.8,0,2.99-.47,3.89-.86l.54,2.38Z"/><path class="cls-2" d="M862.42,319.35h.07c.43-.61,1.04-1.37,1.55-1.98l5.11-6.01h3.82l-6.73,7.16,7.67,10.26h-3.85l-6.01-8.35-1.62,1.8v6.55h-3.13v-25.56h3.13v16.13Z"/><path class="cls-2" d="M875.74,325.54c.94,.61,2.59,1.26,4.18,1.26,2.3,0,3.38-1.15,3.38-2.59,0-1.51-.9-2.34-3.24-3.2-3.13-1.12-4.61-2.84-4.61-4.93,0-2.81,2.27-5.11,6.01-5.11,1.76,0,3.31,.5,4.28,1.08l-.79,2.3c-.68-.43-1.94-1.01-3.56-1.01-1.87,0-2.92,1.08-2.92,2.38,0,1.44,1.04,2.09,3.31,2.95,3.02,1.15,4.57,2.66,4.57,5.26,0,3.06-2.38,5.22-6.52,5.22-1.91,0-3.67-.47-4.9-1.19l.79-2.41Z"/><path class="cls-2" d="M899.32,311.36l2.3,8.85c.5,1.94,.97,3.74,1.3,5.54h.11c.4-1.76,.97-3.64,1.55-5.51l2.84-8.89h2.66l2.7,8.71c.65,2.09,1.15,3.92,1.55,5.69h.11c.29-1.76,.76-3.6,1.33-5.65l2.48-8.75h3.13l-5.62,17.42h-2.88l-2.66-8.31c-.61-1.94-1.12-3.67-1.55-5.72h-.07c-.43,2.09-.97,3.89-1.58,5.76l-2.81,8.28h-2.88l-5.26-17.42h3.24Z"/><path class="cls-2" d="M924.55,303.22h3.17v10.87h.07c.5-.9,1.3-1.69,2.27-2.23,.94-.54,2.05-.9,3.24-.9,2.34,0,6.08,1.44,6.08,7.45v10.37h-3.17v-10.01c0-2.81-1.04-5.18-4.03-5.18-2.05,0-3.67,1.44-4.25,3.17-.18,.43-.22,.9-.22,1.51v10.51h-3.17v-25.56Z"/><path class="cls-2" d="M946.3,320.64c.07,4.28,2.81,6.05,5.98,6.05,2.27,0,3.64-.4,4.82-.9l.54,2.27c-1.12,.5-3.02,1.08-5.8,1.08-5.36,0-8.57-3.53-8.57-8.78s3.1-9.4,8.17-9.4c5.69,0,7.2,5,7.2,8.21,0,.65-.07,1.15-.11,1.48h-12.24Zm9.29-2.27c.04-2.02-.83-5.15-4.39-5.15-3.2,0-4.61,2.95-4.86,5.15h9.25Z"/><path class="cls-2" d="M962.57,316.07c0-1.8-.04-3.28-.14-4.72h2.81l.18,2.88h.07c.86-1.66,2.88-3.28,5.76-3.28,2.41,0,6.16,1.44,6.16,7.42v10.4h-3.17v-10.04c0-2.81-1.04-5.15-4.03-5.15-2.09,0-3.71,1.48-4.25,3.24-.14,.4-.22,.94-.22,1.48v10.47h-3.17v-12.71Z"/><path class="cls-2" d="M990.18,303.22h3.17v10.87h.07c.5-.9,1.3-1.69,2.27-2.23,.94-.54,2.05-.9,3.24-.9,2.34,0,6.08,1.44,6.08,7.45v10.37h-3.17v-10.01c0-2.81-1.04-5.18-4.03-5.18-2.05,0-3.67,1.44-4.25,3.17-.18,.43-.22,.9-.22,1.51v10.51h-3.17v-25.56Z"/><path class="cls-2" d="M1011.92,320.64c.07,4.28,2.81,6.05,5.98,6.05,2.27,0,3.64-.4,4.82-.9l.54,2.27c-1.12,.5-3.02,1.08-5.8,1.08-5.36,0-8.57-3.53-8.57-8.78s3.1-9.4,8.17-9.4c5.69,0,7.2,5,7.2,8.21,0,.65-.07,1.15-.11,1.48h-12.24Zm9.29-2.27c.04-2.02-.83-5.15-4.39-5.15-3.2,0-4.61,2.95-4.86,5.15h9.25Z"/><path class="cls-2" d="M1037.09,311.36l2.3,8.85c.5,1.94,.97,3.74,1.3,5.54h.11c.4-1.76,.97-3.64,1.55-5.51l2.84-8.89h2.66l2.7,8.71c.65,2.09,1.15,3.92,1.55,5.69h.11c.29-1.76,.76-3.6,1.33-5.65l2.48-8.75h3.13l-5.62,17.42h-2.88l-2.66-8.31c-.61-1.94-1.12-3.67-1.55-5.72h-.07c-.43,2.09-.97,3.89-1.58,5.76l-2.81,8.28h-2.88l-5.26-17.42h3.24Z"/><path class="cls-2" d="M1071.83,328.78l-.25-2.2h-.11c-.97,1.37-2.84,2.59-5.33,2.59-3.53,0-5.33-2.48-5.33-5,0-4.21,3.74-6.52,10.47-6.48v-.36c0-1.44-.4-4.03-3.96-4.03-1.62,0-3.31,.5-4.54,1.3l-.72-2.09c1.44-.94,3.53-1.55,5.72-1.55,5.33,0,6.62,3.64,6.62,7.13v6.52c0,1.51,.07,2.99,.29,4.18h-2.88Zm-.47-8.89c-3.46-.07-7.38,.54-7.38,3.92,0,2.05,1.37,3.02,2.99,3.02,2.27,0,3.71-1.44,4.21-2.92,.11-.32,.18-.68,.18-1.01v-3.02Z"/><path class="cls-2" d="M1079.1,325.54c.94,.61,2.59,1.26,4.18,1.26,2.3,0,3.38-1.15,3.38-2.59,0-1.51-.9-2.34-3.24-3.2-3.13-1.12-4.61-2.84-4.61-4.93,0-2.81,2.27-5.11,6.01-5.11,1.76,0,3.31,.5,4.28,1.08l-.79,2.3c-.68-.43-1.94-1.01-3.56-1.01-1.87,0-2.92,1.08-2.92,2.38,0,1.44,1.04,2.09,3.31,2.95,3.02,1.15,4.57,2.66,4.57,5.26,0,3.06-2.38,5.22-6.52,5.22-1.91,0-3.67-.47-4.9-1.19l.79-2.41Z"/><path class="cls-2" d="M1117.18,319.92c0,6.44-4.46,9.25-8.67,9.25-4.72,0-8.35-3.46-8.35-8.96,0-5.83,3.82-9.25,8.64-9.25s8.39,3.64,8.39,8.96Zm-13.82,.18c0,3.82,2.2,6.69,5.29,6.69s5.29-2.84,5.29-6.77c0-2.95-1.48-6.69-5.22-6.69s-5.36,3.46-5.36,6.77Z"/><path class="cls-2" d="M1135.76,324.03c0,1.8,.04,3.38,.14,4.75h-2.81l-.18-2.84h-.07c-.83,1.4-2.66,3.24-5.76,3.24-2.74,0-6.01-1.51-6.01-7.63v-10.19h3.17v9.65c0,3.31,1.01,5.54,3.89,5.54,2.12,0,3.6-1.48,4.18-2.88,.18-.47,.29-1.04,.29-1.62v-10.69h3.17v12.67Z"/><path class="cls-2" d="M1144.83,306.35v5h4.54v2.41h-4.54v9.4c0,2.16,.61,3.38,2.38,3.38,.83,0,1.44-.11,1.84-.22l.14,2.38c-.61,.25-1.58,.43-2.81,.43-1.48,0-2.66-.47-3.42-1.33-.9-.94-1.22-2.48-1.22-4.54v-9.5h-2.7v-2.41h2.7v-4.18l3.1-.83Z"/><path class="cls-2" d="M1152.5,325.54c.94,.61,2.59,1.26,4.18,1.26,2.3,0,3.38-1.15,3.38-2.59,0-1.51-.9-2.34-3.24-3.2-3.13-1.12-4.61-2.84-4.61-4.93,0-2.81,2.27-5.11,6.01-5.11,1.76,0,3.31,.5,4.28,1.08l-.79,2.3c-.68-.43-1.94-1.01-3.56-1.01-1.87,0-2.92,1.08-2.92,2.38,0,1.44,1.04,2.09,3.31,2.95,3.02,1.15,4.57,2.66,4.57,5.26,0,3.06-2.38,5.22-6.52,5.22-1.91,0-3.67-.47-4.9-1.19l.79-2.41Z"/><path class="cls-2" d="M1170.72,306.46c.04,1.08-.76,1.94-2.02,1.94-1.12,0-1.91-.86-1.91-1.94s.83-1.98,1.98-1.98,1.94,.86,1.94,1.98Zm-3.53,22.32v-17.42h3.17v17.42h-3.17Z"/><path class="cls-2" d="M1190.66,303.22v21.06c0,1.55,.04,3.31,.14,4.5h-2.84l-.14-3.02h-.07c-.97,1.94-3.1,3.42-5.94,3.42-4.21,0-7.45-3.56-7.45-8.85-.04-5.8,3.56-9.36,7.81-9.36,2.66,0,4.46,1.26,5.26,2.66h.07v-10.4h3.17Zm-3.17,15.23c0-.4-.04-.94-.14-1.33-.47-2.02-2.2-3.67-4.57-3.67-3.28,0-5.22,2.88-5.22,6.73,0,3.53,1.73,6.44,5.15,6.44,2.12,0,4.07-1.4,4.64-3.78,.11-.43,.14-.86,.14-1.37v-3.02Z"/><path class="cls-2" d="M1197.68,320.64c.07,4.28,2.81,6.05,5.98,6.05,2.27,0,3.64-.4,4.82-.9l.54,2.27c-1.12,.5-3.02,1.08-5.8,1.08-5.36,0-8.57-3.53-8.57-8.78s3.1-9.4,8.17-9.4c5.69,0,7.2,5,7.2,8.21,0,.65-.07,1.15-.11,1.48h-12.24Zm9.29-2.27c.04-2.02-.83-5.15-4.39-5.15-3.2,0-4.61,2.95-4.86,5.15h9.25Z"/><path class="cls-2" d="M1221.58,316.79c0-2.05-.04-3.82-.14-5.44h2.77l.11,3.42h.14c.79-2.34,2.7-3.82,4.82-3.82,.36,0,.61,.04,.9,.11v2.99c-.32-.07-.65-.11-1.08-.11-2.23,0-3.82,1.69-4.25,4.07-.07,.43-.14,.94-.14,1.48v9.29h-3.13v-11.99Z"/><path class="cls-2" d="M1234.76,320.64c.07,4.28,2.81,6.05,5.98,6.05,2.27,0,3.64-.4,4.82-.9l.54,2.27c-1.12,.5-3.02,1.08-5.8,1.08-5.36,0-8.57-3.53-8.57-8.78s3.1-9.4,8.17-9.4c5.69,0,7.2,5,7.2,8.21,0,.65-.07,1.15-.11,1.48h-12.24Zm9.29-2.27c.04-2.02-.83-5.15-4.39-5.15-3.2,0-4.61,2.95-4.86,5.15h9.25Z"/><path class="cls-2" d="M1251.03,317.04c0-2.23-.07-4.03-.14-5.69h2.84l.14,2.99h.07c1.3-2.12,3.35-3.38,6.19-3.38,4.21,0,7.38,3.56,7.38,8.85,0,6.26-3.82,9.36-7.92,9.36-2.3,0-4.32-1.01-5.36-2.74h-.07v9.47h-3.13v-18.86Zm3.13,4.64c0,.47,.07,.9,.14,1.3,.58,2.2,2.48,3.71,4.75,3.71,3.35,0,5.29-2.74,5.29-6.73,0-3.49-1.84-6.48-5.18-6.48-2.16,0-4.18,1.55-4.79,3.92-.11,.4-.22,.86-.22,1.3v2.99Z"/><path class="cls-2" d="M1281.16,328.78l-.25-2.2h-.11c-.97,1.37-2.84,2.59-5.33,2.59-3.53,0-5.33-2.48-5.33-5,0-4.21,3.74-6.52,10.47-6.48v-.36c0-1.44-.4-4.03-3.96-4.03-1.62,0-3.31,.5-4.54,1.3l-.72-2.09c1.44-.94,3.53-1.55,5.72-1.55,5.33,0,6.62,3.64,6.62,7.13v6.52c0,1.51,.07,2.99,.29,4.18h-2.88Zm-.47-8.89c-3.46-.07-7.38,.54-7.38,3.92,0,2.05,1.37,3.02,2.99,3.02,2.27,0,3.71-1.44,4.21-2.92,.11-.32,.18-.68,.18-1.01v-3.02Z"/><path class="cls-2" d="M1292.39,306.46c.04,1.08-.76,1.94-2.02,1.94-1.12,0-1.91-.86-1.91-1.94s.83-1.98,1.98-1.98,1.94,.86,1.94,1.98Zm-3.53,22.32v-17.42h3.17v17.42h-3.17Z"/><path class="cls-2" d="M1297.29,316.79c0-2.05-.04-3.82-.14-5.44h2.77l.11,3.42h.14c.79-2.34,2.7-3.82,4.82-3.82,.36,0,.61,.04,.9,.11v2.99c-.32-.07-.65-.11-1.08-.11-2.23,0-3.82,1.69-4.25,4.07-.07,.43-.14,.94-.14,1.48v9.29h-3.13v-11.99Z"/><path class="cls-2" d="M1312.73,306.46c.04,1.08-.76,1.94-2.02,1.94-1.12,0-1.91-.86-1.91-1.94s.83-1.98,1.98-1.98,1.94,.86,1.94,1.98Zm-3.53,22.32v-17.42h3.17v17.42h-3.17Z"/><path class="cls-2" d="M1317.63,316.07c0-1.8-.04-3.28-.14-4.72h2.81l.18,2.88h.07c.86-1.66,2.88-3.28,5.76-3.28,2.41,0,6.16,1.44,6.16,7.42v10.4h-3.17v-10.04c0-2.81-1.04-5.15-4.03-5.15-2.09,0-3.71,1.48-4.25,3.24-.14,.4-.22,.94-.22,1.48v10.47h-3.17v-12.71Z"/><path class="cls-2" d="M1352.62,311.36c-.07,1.26-.14,2.66-.14,4.79v10.11c0,4-.79,6.44-2.48,7.96-1.69,1.58-4.14,2.09-6.34,2.09s-4.39-.5-5.79-1.44l.79-2.41c1.15,.72,2.95,1.37,5.11,1.37,3.24,0,5.62-1.69,5.62-6.08v-1.94h-.07c-.97,1.62-2.84,2.92-5.54,2.92-4.32,0-7.42-3.67-7.42-8.5,0-5.9,3.85-9.25,7.85-9.25,3.02,0,4.68,1.58,5.44,3.02h.07l.14-2.63h2.77Zm-3.28,6.88c0-.54-.04-1.01-.18-1.44-.58-1.84-2.12-3.35-4.43-3.35-3.02,0-5.18,2.56-5.18,6.59,0,3.42,1.73,6.26,5.15,6.26,1.94,0,3.71-1.22,4.39-3.24,.18-.54,.25-1.15,.25-1.69v-3.13Z"/><path class="cls-2" d="M1369.18,306.35v5h4.54v2.41h-4.54v9.4c0,2.16,.61,3.38,2.38,3.38,.83,0,1.44-.11,1.84-.22l.14,2.38c-.61,.25-1.58,.43-2.81,.43-1.48,0-2.66-.47-3.42-1.33-.9-.94-1.22-2.48-1.22-4.54v-9.5h-2.7v-2.41h2.7v-4.18l3.1-.83Z"/><path class="cls-2" d="M1377.28,303.22h3.17v10.87h.07c.5-.9,1.3-1.69,2.27-2.23,.94-.54,2.05-.9,3.24-.9,2.34,0,6.08,1.44,6.08,7.45v10.37h-3.17v-10.01c0-2.81-1.04-5.18-4.03-5.18-2.05,0-3.67,1.44-4.25,3.17-.18,.43-.22,.9-.22,1.51v10.51h-3.17v-25.56Z"/><path class="cls-2" d="M1399.02,320.64c.07,4.28,2.81,6.05,5.98,6.05,2.27,0,3.64-.4,4.82-.9l.54,2.27c-1.12,.5-3.02,1.08-5.8,1.08-5.36,0-8.57-3.53-8.57-8.78s3.1-9.4,8.17-9.4c5.69,0,7.2,5,7.2,8.21,0,.65-.07,1.15-.11,1.48h-12.24Zm9.29-2.27c.04-2.02-.83-5.15-4.39-5.15-3.2,0-4.61,2.95-4.86,5.15h9.25Z"/><path class="cls-2" d="M1422.5,325.54c.94,.61,2.59,1.26,4.18,1.26,2.3,0,3.38-1.15,3.38-2.59,0-1.51-.9-2.34-3.24-3.2-3.13-1.12-4.61-2.84-4.61-4.93,0-2.81,2.27-5.11,6.01-5.11,1.76,0,3.31,.5,4.28,1.08l-.79,2.3c-.68-.43-1.94-1.01-3.56-1.01-1.87,0-2.92,1.08-2.92,2.38,0,1.44,1.04,2.09,3.31,2.95,3.02,1.15,4.57,2.66,4.57,5.26,0,3.06-2.38,5.22-6.52,5.22-1.91,0-3.67-.47-4.9-1.19l.79-2.41Z"/><path class="cls-2" d="M1437.18,317.04c0-2.23-.07-4.03-.14-5.69h2.84l.14,2.99h.07c1.3-2.12,3.35-3.38,6.19-3.38,4.21,0,7.38,3.56,7.38,8.85,0,6.26-3.82,9.36-7.92,9.36-2.3,0-4.32-1.01-5.36-2.74h-.07v9.47h-3.13v-18.86Zm3.13,4.64c0,.47,.07,.9,.14,1.3,.58,2.2,2.48,3.71,4.75,3.71,3.35,0,5.29-2.74,5.29-6.73,0-3.49-1.84-6.48-5.18-6.48-2.16,0-4.18,1.55-4.79,3.92-.11,.4-.22,.86-.22,1.3v2.99Z"/><path class="cls-2" d="M1467.31,328.78l-.25-2.2h-.11c-.97,1.37-2.84,2.59-5.33,2.59-3.53,0-5.33-2.48-5.33-5,0-4.21,3.74-6.52,10.47-6.48v-.36c0-1.44-.4-4.03-3.96-4.03-1.62,0-3.31,.5-4.54,1.3l-.72-2.09c1.44-.94,3.53-1.55,5.72-1.55,5.33,0,6.62,3.64,6.62,7.13v6.52c0,1.51,.07,2.99,.29,4.18h-2.88Zm-.47-8.89c-3.46-.07-7.38,.54-7.38,3.92,0,2.05,1.37,3.02,2.99,3.02,2.27,0,3.71-1.44,4.21-2.92,.11-.32,.18-.68,.18-1.01v-3.02Z"/><path class="cls-2" d="M1487.44,328.13c-.83,.43-2.66,1.01-5,1.01-5.26,0-8.68-3.56-8.68-8.89s3.67-9.25,9.36-9.25c1.87,0,3.53,.47,4.39,.9l-.72,2.45c-.76-.43-1.94-.83-3.67-.83-4,0-6.16,2.95-6.16,6.59,0,4.03,2.59,6.52,6.05,6.52,1.8,0,2.99-.47,3.89-.86l.54,2.38Z"/><path class="cls-2" d="M1492.69,320.64c.07,4.28,2.81,6.05,5.98,6.05,2.27,0,3.64-.4,4.82-.9l.54,2.27c-1.12,.5-3.02,1.08-5.8,1.08-5.36,0-8.57-3.53-8.57-8.78s3.1-9.4,8.17-9.4c5.69,0,7.2,5,7.2,8.21,0,.65-.07,1.15-.11,1.48h-12.24Zm9.29-2.27c.04-2.02-.83-5.15-4.39-5.15-3.2,0-4.61,2.95-4.86,5.15h9.25Z"/><path class="cls-2" d="M1508.53,325.54c.94,.61,2.59,1.26,4.18,1.26,2.3,0,3.38-1.15,3.38-2.59,0-1.51-.9-2.34-3.24-3.2-3.13-1.12-4.61-2.84-4.61-4.93,0-2.81,2.27-5.11,6.01-5.11,1.76,0,3.31,.5,4.28,1.08l-.79,2.3c-.68-.43-1.94-1.01-3.56-1.01-1.87,0-2.92,1.08-2.92,2.38,0,1.44,1.04,2.09,3.31,2.95,3.02,1.15,4.57,2.66,4.57,5.26,0,3.06-2.38,5.22-6.52,5.22-1.91,0-3.67-.47-4.89-1.19l.79-2.41Z"/><path class="cls-2" d="M1523.22,303.22h3.17v10.87h.07c.5-.9,1.3-1.69,2.27-2.23,.94-.54,2.05-.9,3.24-.9,2.34,0,6.08,1.44,6.08,7.45v10.37h-3.17v-10.01c0-2.81-1.04-5.18-4.03-5.18-2.05,0-3.67,1.44-4.25,3.17-.18,.43-.22,.9-.22,1.51v10.51h-3.17v-25.56Z"/><path class="cls-2" d="M1546.73,306.46c.04,1.08-.76,1.94-2.02,1.94-1.12,0-1.91-.86-1.91-1.94s.83-1.98,1.98-1.98,1.94,.86,1.94,1.98Zm-3.53,22.32v-17.42h3.17v17.42h-3.17Z"/><path class="cls-2" d="M1551.63,317.04c0-2.23-.07-4.03-.14-5.69h2.84l.14,2.99h.07c1.3-2.12,3.35-3.38,6.19-3.38,4.21,0,7.38,3.56,7.38,8.85,0,6.26-3.82,9.36-7.92,9.36-2.3,0-4.32-1.01-5.36-2.74h-.07v9.47h-3.13v-18.86Zm3.13,4.64c0,.47,.07,.9,.14,1.3,.58,2.2,2.48,3.71,4.75,3.71,3.35,0,5.29-2.74,5.29-6.73,0-3.49-1.84-6.48-5.18-6.48-2.16,0-4.18,1.55-4.79,3.92-.11,.4-.22,.86-.22,1.3v2.99Z"/><path class="cls-2" d="M1570.49,326.91c0-1.33,.9-2.27,2.16-2.27s2.12,.94,2.12,2.27-.83,2.27-2.16,2.27c-1.26,0-2.12-.97-2.12-2.27Z"/><path class="cls-2" d="M552.52,347.72v10.15h11.73v-10.15h3.17v24.26h-3.17v-11.37h-11.73v11.37h-3.13v-24.26h3.13Z"/><path class="cls-2" d="M574.51,363.84c.07,4.28,2.81,6.05,5.98,6.05,2.27,0,3.64-.4,4.82-.9l.54,2.27c-1.12,.5-3.02,1.08-5.8,1.08-5.36,0-8.57-3.53-8.57-8.78s3.1-9.4,8.17-9.4c5.69,0,7.2,5,7.2,8.21,0,.65-.07,1.15-.11,1.48h-12.24Zm9.29-2.27c.04-2.02-.83-5.15-4.39-5.15-3.2,0-4.61,2.95-4.86,5.15h9.25Z"/><path class="cls-2" d="M590.78,346.42h3.17v25.56h-3.17v-25.56Z"/><path class="cls-2" d="M599.28,360.24c0-2.23-.07-4.03-.14-5.69h2.84l.14,2.99h.07c1.3-2.12,3.35-3.38,6.19-3.38,4.21,0,7.38,3.56,7.38,8.85,0,6.26-3.82,9.36-7.92,9.36-2.3,0-4.32-1.01-5.36-2.74h-.07v9.47h-3.13v-18.86Zm3.13,4.64c0,.47,.07,.9,.14,1.3,.58,2.2,2.48,3.71,4.75,3.71,3.35,0,5.29-2.74,5.29-6.73,0-3.49-1.84-6.48-5.18-6.48-2.16,0-4.18,1.55-4.79,3.92-.11,.4-.22,.86-.22,1.3v2.99Z"/><path class="cls-2" d="M627.39,346.42h3.17v10.87h.07c.5-.9,1.3-1.69,2.27-2.23,.94-.54,2.05-.9,3.24-.9,2.34,0,6.08,1.44,6.08,7.45v10.37h-3.17v-10.01c0-2.81-1.04-5.18-4.03-5.18-2.05,0-3.67,1.44-4.25,3.17-.18,.43-.22,.9-.22,1.51v10.51h-3.17v-25.56Z"/><path class="cls-2" d="M650.9,349.66c.04,1.08-.76,1.94-2.02,1.94-1.12,0-1.91-.86-1.91-1.94s.83-1.98,1.98-1.98,1.94,.86,1.94,1.98Zm-3.53,22.32v-17.42h3.17v17.42h-3.17Z"/><path class="cls-2" d="M655.8,359.27c0-1.8-.04-3.28-.14-4.72h2.77l.14,2.81h.11c.97-1.66,2.59-3.2,5.47-3.2,2.38,0,4.18,1.44,4.93,3.49h.07c.54-.97,1.22-1.73,1.94-2.27,1.04-.79,2.2-1.22,3.85-1.22,2.3,0,5.72,1.51,5.72,7.56v10.26h-3.1v-9.86c0-3.35-1.22-5.36-3.78-5.36-1.8,0-3.2,1.33-3.74,2.88-.14,.43-.25,1.01-.25,1.58v10.76h-3.1v-10.44c0-2.77-1.22-4.79-3.64-4.79-1.98,0-3.42,1.58-3.92,3.17-.18,.47-.25,1.01-.25,1.55v10.51h-3.1v-12.71Z"/><path class="cls-2" d="M708.46,354.56c-.07,1.26-.14,2.66-.14,4.79v10.11c0,4-.79,6.44-2.48,7.96-1.69,1.58-4.14,2.09-6.34,2.09s-4.39-.5-5.79-1.44l.79-2.41c1.15,.72,2.95,1.37,5.11,1.37,3.24,0,5.62-1.69,5.62-6.08v-1.94h-.07c-.97,1.62-2.84,2.92-5.54,2.92-4.32,0-7.42-3.67-7.42-8.5,0-5.9,3.85-9.25,7.85-9.25,3.02,0,4.68,1.58,5.44,3.02h.07l.14-2.63h2.77Zm-3.28,6.88c0-.54-.04-1.01-.18-1.44-.58-1.84-2.12-3.35-4.43-3.35-3.02,0-5.18,2.56-5.18,6.59,0,3.42,1.73,6.26,5.15,6.26,1.94,0,3.71-1.22,4.39-3.24,.18-.54,.25-1.15,.25-1.69v-3.13Z"/><path class="cls-2" d="M715.34,363.84c.07,4.28,2.81,6.05,5.98,6.05,2.27,0,3.64-.4,4.82-.9l.54,2.27c-1.12,.5-3.02,1.08-5.8,1.08-5.36,0-8.57-3.53-8.57-8.78s3.1-9.4,8.17-9.4c5.69,0,7.2,5,7.2,8.21,0,.65-.07,1.15-.11,1.48h-12.24Zm9.29-2.27c.04-2.02-.83-5.15-4.39-5.15-3.2,0-4.61,2.95-4.86,5.15h9.25Z"/><path class="cls-2" d="M735.43,349.55v5h4.54v2.41h-4.54v9.4c0,2.16,.61,3.38,2.38,3.38,.83,0,1.44-.11,1.84-.22l.14,2.38c-.61,.25-1.58,.43-2.81,.43-1.48,0-2.66-.47-3.42-1.33-.9-.94-1.22-2.48-1.22-4.54v-9.5h-2.7v-2.41h2.7v-4.18l3.1-.83Z"/><path class="cls-2" d="M754.98,349.55v5h4.54v2.41h-4.54v9.4c0,2.16,.61,3.38,2.38,3.38,.83,0,1.44-.11,1.84-.22l.14,2.38c-.61,.25-1.58,.43-2.81,.43-1.48,0-2.66-.47-3.42-1.33-.9-.94-1.22-2.48-1.22-4.54v-9.5h-2.7v-2.41h2.7v-4.18l3.1-.83Z"/><path class="cls-2" d="M763.08,346.42h3.17v10.87h.07c.5-.9,1.3-1.69,2.27-2.23,.94-.54,2.05-.9,3.24-.9,2.34,0,6.08,1.44,6.08,7.45v10.37h-3.17v-10.01c0-2.81-1.04-5.18-4.03-5.18-2.05,0-3.67,1.44-4.25,3.17-.18,.43-.22,.9-.22,1.51v10.51h-3.17v-25.56Z"/><path class="cls-2" d="M784.82,363.84c.07,4.28,2.81,6.05,5.98,6.05,2.27,0,3.64-.4,4.82-.9l.54,2.27c-1.12,.5-3.02,1.08-5.8,1.08-5.36,0-8.57-3.53-8.57-8.78s3.1-9.4,8.17-9.4c5.69,0,7.2,5,7.2,8.21,0,.65-.07,1.15-.11,1.48h-12.24Zm9.29-2.27c.04-2.02-.83-5.15-4.39-5.15-3.2,0-4.61,2.95-4.86,5.15h9.25Z"/><path class="cls-2" d="M801.09,359.27c0-1.8-.04-3.28-.14-4.72h2.77l.14,2.81h.11c.97-1.66,2.59-3.2,5.47-3.2,2.38,0,4.18,1.44,4.93,3.49h.07c.54-.97,1.22-1.73,1.94-2.27,1.04-.79,2.2-1.22,3.85-1.22,2.3,0,5.72,1.51,5.72,7.56v10.26h-3.1v-9.86c0-3.35-1.22-5.36-3.78-5.36-1.8,0-3.2,1.33-3.74,2.88-.14,.43-.25,1.01-.25,1.58v10.76h-3.1v-10.44c0-2.77-1.22-4.79-3.64-4.79-1.98,0-3.42,1.58-3.92,3.17-.18,.47-.25,1.01-.25,1.55v10.51h-3.1v-12.71Z"/><path class="cls-2" d="M838.6,371.98c.07-1.19,.14-2.95,.14-4.5v-21.06h3.13v10.94h.07c1.12-1.94,3.13-3.2,5.94-3.2,4.32,0,7.38,3.6,7.34,8.89,0,6.23-3.92,9.32-7.81,9.32-2.52,0-4.54-.97-5.83-3.28h-.11l-.14,2.88h-2.74Zm3.28-6.98c0,.4,.07,.79,.14,1.15,.61,2.2,2.45,3.71,4.75,3.71,3.31,0,5.29-2.7,5.29-6.7,0-3.49-1.8-6.48-5.18-6.48-2.16,0-4.18,1.48-4.82,3.89-.07,.36-.18,.79-.18,1.3v3.13Z"/><path class="cls-2" d="M868.88,371.98l-.25-2.2h-.11c-.97,1.37-2.84,2.59-5.33,2.59-3.53,0-5.33-2.48-5.33-5,0-4.21,3.74-6.52,10.47-6.48v-.36c0-1.44-.4-4.03-3.96-4.03-1.62,0-3.31,.5-4.54,1.3l-.72-2.09c1.44-.94,3.53-1.55,5.72-1.55,5.33,0,6.62,3.64,6.62,7.13v6.52c0,1.51,.07,2.99,.29,4.18h-2.88Zm-.47-8.89c-3.46-.07-7.38,.54-7.38,3.92,0,2.05,1.37,3.02,2.99,3.02,2.27,0,3.71-1.44,4.21-2.92,.11-.32,.18-.68,.18-1.01v-3.02Z"/><path class="cls-2" d="M889,371.33c-.83,.43-2.66,1.01-5,1.01-5.26,0-8.68-3.56-8.68-8.89s3.67-9.25,9.36-9.25c1.87,0,3.53,.47,4.39,.9l-.72,2.45c-.76-.43-1.94-.83-3.67-.83-4,0-6.16,2.95-6.16,6.59,0,4.03,2.59,6.52,6.05,6.52,1.8,0,2.99-.47,3.89-.86l.54,2.38Z"/><path class="cls-2" d="M895.84,362.55h.07c.43-.61,1.04-1.37,1.55-1.98l5.11-6.01h3.82l-6.73,7.16,7.67,10.26h-3.85l-6.01-8.35-1.62,1.8v6.55h-3.13v-25.56h3.13v16.13Z"/><path class="cls-2" d="M917.08,371.98c.07-1.19,.14-2.95,.14-4.5v-21.06h3.13v10.94h.07c1.12-1.94,3.13-3.2,5.94-3.2,4.32,0,7.38,3.6,7.34,8.89,0,6.23-3.92,9.32-7.81,9.32-2.52,0-4.54-.97-5.83-3.28h-.11l-.14,2.88h-2.74Zm3.28-6.98c0,.4,.07,.79,.14,1.15,.61,2.2,2.45,3.71,4.75,3.71,3.31,0,5.29-2.7,5.29-6.7,0-3.49-1.8-6.48-5.18-6.48-2.16,0-4.18,1.48-4.82,3.89-.07,.36-.18,.79-.18,1.3v3.13Z"/><path class="cls-2" d="M939.47,363.84c.07,4.28,2.81,6.05,5.98,6.05,2.27,0,3.64-.4,4.82-.9l.54,2.27c-1.12,.5-3.02,1.08-5.8,1.08-5.36,0-8.57-3.53-8.57-8.78s3.1-9.4,8.17-9.4c5.69,0,7.2,5,7.2,8.21,0,.65-.07,1.15-.11,1.48h-12.24Zm9.29-2.27c.04-2.02-.83-5.15-4.39-5.15-3.2,0-4.61,2.95-4.86,5.15h9.25Z"/><path class="cls-2" d="M956.07,371.98v-15.01h-2.45v-2.41h2.45v-.83c0-2.45,.54-4.68,2.02-6.08,1.19-1.15,2.77-1.62,4.25-1.62,1.12,0,2.09,.25,2.7,.5l-.43,2.45c-.47-.22-1.12-.4-2.02-.4-2.7,0-3.38,2.38-3.38,5.04v.94h4.21v2.41h-4.21v15.01h-3.13Z"/><path class="cls-2" d="M981.55,363.12c0,6.44-4.46,9.25-8.67,9.25-4.72,0-8.35-3.46-8.35-8.96,0-5.83,3.82-9.25,8.64-9.25s8.39,3.64,8.39,8.96Zm-13.82,.18c0,3.82,2.2,6.69,5.29,6.69s5.29-2.84,5.29-6.77c0-2.95-1.48-6.69-5.22-6.69s-5.36,3.46-5.36,6.77Z"/><path class="cls-2" d="M985.55,359.99c0-2.05-.04-3.82-.14-5.44h2.77l.11,3.42h.14c.79-2.34,2.7-3.82,4.82-3.82,.36,0,.61,.04,.9,.11v2.99c-.32-.07-.65-.11-1.08-.11-2.23,0-3.82,1.69-4.25,4.07-.07,.43-.14,.94-.14,1.48v9.29h-3.13v-11.99Z"/><path class="cls-2" d="M998.73,363.84c.07,4.28,2.81,6.05,5.98,6.05,2.27,0,3.64-.4,4.82-.9l.54,2.27c-1.12,.5-3.02,1.08-5.8,1.08-5.36,0-8.57-3.53-8.57-8.78s3.1-9.4,8.17-9.4c5.69,0,7.2,5,7.2,8.21,0,.65-.07,1.15-.11,1.48h-12.24Zm9.29-2.27c.04-2.02-.83-5.15-4.39-5.15-3.2,0-4.61,2.95-4.86,5.15h9.25Z"/><path class="cls-2" d="M1022.63,346.42h3.17v10.87h.07c.5-.9,1.3-1.69,2.27-2.23,.94-.54,2.05-.9,3.24-.9,2.34,0,6.08,1.44,6.08,7.45v10.37h-3.17v-10.01c0-2.81-1.04-5.18-4.03-5.18-2.05,0-3.67,1.44-4.25,3.17-.18,.43-.22,.9-.22,1.51v10.51h-3.17v-25.56Z"/><path class="cls-2" d="M1044.38,363.84c.07,4.28,2.81,6.05,5.98,6.05,2.27,0,3.64-.4,4.82-.9l.54,2.27c-1.12,.5-3.02,1.08-5.8,1.08-5.36,0-8.57-3.53-8.57-8.78s3.1-9.4,8.17-9.4c5.69,0,7.2,5,7.2,8.21,0,.65-.07,1.15-.11,1.48h-12.24Zm9.29-2.27c.04-2.02-.83-5.15-4.39-5.15-3.2,0-4.61,2.95-4.86,5.15h9.25Z"/><path class="cls-2" d="M1068.28,359.99c0-2.05-.04-3.82-.14-5.44h2.77l.11,3.42h.14c.79-2.34,2.7-3.82,4.82-3.82,.36,0,.61,.04,.9,.11v2.99c-.32-.07-.65-.11-1.08-.11-2.23,0-3.82,1.69-4.25,4.07-.07,.43-.14,.94-.14,1.48v9.29h-3.13v-11.99Z"/><path class="cls-2" d="M1094.63,367.23c0,1.8,.04,3.38,.14,4.75h-2.81l-.18-2.84h-.07c-.83,1.4-2.66,3.24-5.76,3.24-2.74,0-6.01-1.51-6.01-7.63v-10.19h3.17v9.65c0,3.31,1.01,5.54,3.89,5.54,2.12,0,3.6-1.48,4.18-2.88,.18-.47,.29-1.04,.29-1.62v-10.69h3.17v12.67Z"/><path class="cls-2" d="M1099.89,359.27c0-1.8-.04-3.28-.14-4.72h2.81l.18,2.88h.07c.86-1.66,2.88-3.28,5.76-3.28,2.41,0,6.16,1.44,6.16,7.42v10.4h-3.17v-10.04c0-2.81-1.04-5.15-4.03-5.15-2.09,0-3.71,1.48-4.25,3.24-.14,.4-.22,.94-.22,1.48v10.47h-3.17v-12.71Z"/><path class="cls-2" d="M1119.43,368.74c.94,.61,2.59,1.26,4.18,1.26,2.3,0,3.38-1.15,3.38-2.59,0-1.51-.9-2.34-3.24-3.2-3.13-1.12-4.61-2.84-4.61-4.93,0-2.81,2.27-5.11,6.01-5.11,1.76,0,3.31,.5,4.28,1.08l-.79,2.3c-.68-.43-1.94-1.01-3.56-1.01-1.87,0-2.92,1.08-2.92,2.38,0,1.44,1.04,2.09,3.31,2.95,3.02,1.15,4.57,2.66,4.57,5.26,0,3.06-2.38,5.22-6.52,5.22-1.91,0-3.67-.47-4.9-1.19l.79-2.41Z"/><path class="cls-2" d="M1157.52,363.12c0,6.44-4.46,9.25-8.67,9.25-4.72,0-8.35-3.46-8.35-8.96,0-5.83,3.82-9.25,8.64-9.25s8.39,3.64,8.39,8.96Zm-13.82,.18c0,3.82,2.2,6.69,5.29,6.69s5.29-2.84,5.29-6.77c0-2.95-1.48-6.69-5.22-6.69s-5.36,3.46-5.36,6.77Z"/><path class="cls-2" d="M1176.1,367.23c0,1.8,.04,3.38,.14,4.75h-2.81l-.18-2.84h-.07c-.83,1.4-2.66,3.24-5.76,3.24-2.74,0-6.01-1.51-6.01-7.63v-10.19h3.17v9.65c0,3.31,1.01,5.54,3.89,5.54,2.12,0,3.6-1.48,4.18-2.88,.18-.47,.29-1.04,.29-1.62v-10.69h3.17v12.67Z"/><path class="cls-2" d="M1185.17,349.55v5h4.54v2.41h-4.54v9.4c0,2.16,.61,3.38,2.38,3.38,.83,0,1.44-.11,1.84-.22l.14,2.38c-.61,.25-1.58,.43-2.81,.43-1.48,0-2.66-.47-3.42-1.33-.9-.94-1.22-2.48-1.22-4.54v-9.5h-2.7v-2.41h2.7v-4.18l3.1-.83Z"/><path class="cls-2" d="M1216.67,363.12c0,6.44-4.46,9.25-8.67,9.25-4.72,0-8.35-3.46-8.35-8.96,0-5.83,3.82-9.25,8.64-9.25s8.39,3.64,8.39,8.96Zm-13.82,.18c0,3.82,2.2,6.69,5.29,6.69s5.29-2.84,5.29-6.77c0-2.95-1.48-6.69-5.22-6.69s-5.36,3.46-5.36,6.77Z"/><path class="cls-2" d="M1220.99,371.98v-15.01h-2.45v-2.41h2.45v-.83c0-2.45,.54-4.68,2.02-6.08,1.19-1.15,2.77-1.62,4.25-1.62,1.12,0,2.09,.25,2.7,.5l-.43,2.45c-.47-.22-1.12-.4-2.02-.4-2.7,0-3.38,2.38-3.38,5.04v.94h4.21v2.41h-4.21v15.01h-3.13Z"/><path class="cls-2" d="M1254.57,363.12c0,6.44-4.46,9.25-8.67,9.25-4.72,0-8.35-3.46-8.35-8.96,0-5.83,3.82-9.25,8.64-9.25s8.39,3.64,8.39,8.96Zm-13.82,.18c0,3.82,2.2,6.69,5.29,6.69s5.29-2.84,5.29-6.77c0-2.95-1.48-6.69-5.22-6.69s-5.36,3.46-5.36,6.77Z"/><path class="cls-2" d="M1259.54,354.56l2.48,3.74c.65,.97,1.19,1.87,1.76,2.84h.11c.58-1.04,1.15-1.94,1.73-2.88l2.45-3.71h3.42l-5.94,8.42,6.12,9h-3.6l-2.56-3.92c-.68-1.01-1.26-1.98-1.87-3.02h-.07c-.58,1.04-1.19,1.98-1.84,3.02l-2.52,3.92h-3.49l6.19-8.89-5.9-8.53h3.53Z"/><path class="cls-2" d="M1276.43,354.56l3.82,10.29c.4,1.15,.83,2.52,1.12,3.56h.07c.32-1.04,.68-2.38,1.12-3.64l3.46-10.22h3.35l-4.75,12.42c-2.27,5.98-3.82,9.03-5.98,10.91-1.55,1.37-3.1,1.91-3.89,2.05l-.79-2.66c.79-.25,1.84-.76,2.77-1.55,.86-.68,1.94-1.91,2.66-3.53,.14-.32,.25-.58,.25-.76s-.07-.43-.22-.83l-6.44-16.05h3.46Z"/><path class="cls-2" d="M1306.88,354.56c-.07,1.26-.14,2.66-.14,4.79v10.11c0,4-.79,6.44-2.48,7.96-1.69,1.58-4.14,2.09-6.34,2.09s-4.39-.5-5.8-1.44l.79-2.41c1.15,.72,2.95,1.37,5.11,1.37,3.24,0,5.62-1.69,5.62-6.08v-1.94h-.07c-.97,1.62-2.84,2.92-5.54,2.92-4.32,0-7.42-3.67-7.42-8.5,0-5.9,3.85-9.25,7.85-9.25,3.02,0,4.68,1.58,5.44,3.02h.07l.14-2.63h2.77Zm-3.28,6.88c0-.54-.04-1.01-.18-1.44-.58-1.84-2.12-3.35-4.43-3.35-3.02,0-5.18,2.56-5.18,6.59,0,3.42,1.73,6.26,5.15,6.26,1.94,0,3.71-1.22,4.39-3.24,.18-.54,.25-1.15,.25-1.69v-3.13Z"/><path class="cls-2" d="M1313.76,363.84c.07,4.28,2.81,6.05,5.98,6.05,2.27,0,3.64-.4,4.82-.9l.54,2.27c-1.12,.5-3.02,1.08-5.8,1.08-5.36,0-8.57-3.53-8.57-8.78s3.1-9.4,8.17-9.4c5.69,0,7.2,5,7.2,8.21,0,.65-.07,1.15-.11,1.48h-12.24Zm9.29-2.27c.04-2.02-.83-5.15-4.39-5.15-3.2,0-4.61,2.95-4.86,5.15h9.25Z"/><path class="cls-2" d="M1330.03,359.27c0-1.8-.04-3.28-.14-4.72h2.81l.18,2.88h.07c.86-1.66,2.88-3.28,5.76-3.28,2.41,0,6.16,1.44,6.16,7.42v10.4h-3.17v-10.04c0-2.81-1.04-5.15-4.03-5.15-2.09,0-3.71,1.48-4.25,3.24-.14,.4-.22,.94-.22,1.48v10.47h-3.17v-12.71Z"/><path class="cls-2" d="M1349.4,370.14c0-1.3,.9-2.23,2.12-2.23,1.3,0,2.12,.94,2.12,2.23s-.83,2.23-2.12,2.23-2.12-.97-2.12-2.23Zm.9-5.15l-.5-17.28h3.46l-.5,17.28h-2.45Z"/><path class="cls-2" d="M527.57,457.59c-1.15,.58-3.46,1.15-6.41,1.15-6.84,0-11.99-4.32-11.99-12.27s5.15-12.74,12.67-12.74c3.02,0,4.93,.65,5.76,1.08l-.76,2.56c-1.19-.58-2.88-1.01-4.9-1.01-5.69,0-9.47,3.64-9.47,10.01,0,5.94,3.42,9.75,9.32,9.75,1.91,0,3.85-.4,5.11-1.01l.65,2.48Z"/><path class="cls-2" d="M531.38,432.82h3.17v25.56h-3.17v-25.56Z"/><path class="cls-2" d="M543.41,436.06c.04,1.08-.76,1.94-2.02,1.94-1.12,0-1.91-.86-1.91-1.94s.83-1.98,1.98-1.98,1.94,.86,1.94,1.98Zm-3.53,22.32v-17.42h3.17v17.42h-3.17Z"/><path class="cls-2" d="M560.72,457.73c-.83,.43-2.66,1.01-5,1.01-5.26,0-8.68-3.56-8.68-8.89s3.67-9.25,9.36-9.25c1.87,0,3.53,.47,4.39,.9l-.72,2.45c-.76-.43-1.94-.83-3.67-.83-4,0-6.16,2.95-6.16,6.59,0,4.03,2.59,6.52,6.05,6.52,1.8,0,2.99-.47,3.89-.86l.54,2.38Z"/><path class="cls-2" d="M567.56,448.95h.07c.43-.61,1.04-1.37,1.55-1.98l5.11-6.01h3.82l-6.73,7.16,7.67,10.26h-3.85l-6.01-8.35-1.62,1.8v6.55h-3.13v-25.56h3.13v16.13Z"/><path class="cls-2" d="M604.71,449.52c0,6.44-4.46,9.25-8.67,9.25-4.72,0-8.35-3.46-8.35-8.96,0-5.83,3.82-9.25,8.64-9.25s8.39,3.64,8.39,8.96Zm-13.82,.18c0,3.82,2.2,6.69,5.29,6.69s5.29-2.84,5.29-6.77c0-2.95-1.48-6.69-5.22-6.69s-5.36,3.46-5.36,6.77Z"/><path class="cls-2" d="M608.71,445.67c0-1.8-.04-3.28-.14-4.72h2.81l.18,2.88h.07c.86-1.66,2.88-3.28,5.76-3.28,2.41,0,6.16,1.44,6.16,7.42v10.4h-3.17v-10.04c0-2.81-1.04-5.15-4.03-5.15-2.09,0-3.71,1.48-4.25,3.24-.14,.4-.22,.94-.22,1.48v10.47h-3.17v-12.71Z"/><path class="cls-2" d="M635.89,455.14c.94,.61,2.59,1.26,4.18,1.26,2.3,0,3.38-1.15,3.38-2.59,0-1.51-.9-2.34-3.24-3.2-3.13-1.12-4.61-2.84-4.61-4.93,0-2.81,2.27-5.11,6.01-5.11,1.76,0,3.31,.5,4.28,1.08l-.79,2.3c-.68-.43-1.94-1.01-3.56-1.01-1.87,0-2.92,1.08-2.92,2.38,0,1.44,1.04,2.09,3.31,2.95,3.02,1.15,4.57,2.66,4.57,5.26,0,3.06-2.38,5.22-6.52,5.22-1.91,0-3.67-.47-4.9-1.19l.79-2.41Z"/><path class="cls-2" d="M650.58,445.67c0-1.8-.04-3.28-.14-4.72h2.81l.18,2.88h.07c.86-1.66,2.88-3.28,5.76-3.28,2.41,0,6.16,1.44,6.16,7.42v10.4h-3.17v-10.04c0-2.81-1.04-5.15-4.03-5.15-2.09,0-3.71,1.48-4.25,3.24-.14,.4-.22,.94-.22,1.48v10.47h-3.17v-12.71Z"/><path class="cls-2" d="M680.21,458.38l-.25-2.2h-.11c-.97,1.37-2.84,2.59-5.33,2.59-3.53,0-5.33-2.48-5.33-5,0-4.21,3.74-6.52,10.47-6.48v-.36c0-1.44-.4-4.03-3.96-4.03-1.62,0-3.31,.5-4.54,1.3l-.72-2.09c1.44-.94,3.53-1.55,5.72-1.55,5.33,0,6.62,3.64,6.62,7.13v6.52c0,1.51,.07,2.99,.29,4.18h-2.88Zm-.47-8.89c-3.46-.07-7.38,.54-7.38,3.92,0,2.05,1.37,3.02,2.99,3.02,2.27,0,3.71-1.44,4.21-2.92,.11-.32,.18-.68,.18-1.01v-3.02Z"/><path class="cls-2" d="M700.33,457.73c-.83,.43-2.66,1.01-5,1.01-5.26,0-8.68-3.56-8.68-8.89s3.67-9.25,9.36-9.25c1.87,0,3.53,.47,4.39,.9l-.72,2.45c-.76-.43-1.94-.83-3.67-.83-4,0-6.16,2.95-6.16,6.59,0,4.03,2.59,6.52,6.05,6.52,1.8,0,2.99-.47,3.89-.86l.54,2.38Z"/><path class="cls-2" d="M707.17,448.95h.07c.43-.61,1.04-1.37,1.55-1.98l5.11-6.01h3.82l-6.73,7.16,7.67,10.26h-3.85l-6.01-8.35-1.62,1.8v6.55h-3.13v-25.56h3.13v16.13Z"/><path class="cls-2" d="M720.49,455.14c.94,.61,2.59,1.26,4.18,1.26,2.3,0,3.38-1.15,3.38-2.59,0-1.51-.9-2.34-3.24-3.2-3.13-1.12-4.61-2.84-4.61-4.93,0-2.81,2.27-5.11,6.01-5.11,1.76,0,3.31,.5,4.28,1.08l-.79,2.3c-.68-.43-1.94-1.01-3.56-1.01-1.87,0-2.92,1.08-2.92,2.38,0,1.44,1.04,2.09,3.31,2.95,3.02,1.15,4.57,2.66,4.57,5.26,0,3.06-2.38,5.22-6.52,5.22-1.91,0-3.67-.47-4.9-1.19l.79-2.41Z"/><path class="cls-2" d="M746.63,435.95v5h4.54v2.41h-4.54v9.4c0,2.16,.61,3.38,2.38,3.38,.83,0,1.44-.11,1.84-.22l.14,2.38c-.61,.25-1.58,.43-2.81,.43-1.48,0-2.66-.47-3.42-1.33-.9-.94-1.22-2.48-1.22-4.54v-9.5h-2.7v-2.41h2.7v-4.18l3.1-.83Z"/><path class="cls-2" d="M770.28,449.52c0,6.44-4.46,9.25-8.67,9.25-4.72,0-8.35-3.46-8.35-8.96,0-5.83,3.82-9.25,8.64-9.25s8.39,3.64,8.39,8.96Zm-13.82,.18c0,3.82,2.2,6.69,5.29,6.69s5.29-2.84,5.29-6.77c0-2.95-1.48-6.69-5.22-6.69s-5.36,3.46-5.36,6.77Z"/><path class="cls-2" d="M794.32,457.73c-.83,.43-2.66,1.01-5,1.01-5.26,0-8.68-3.56-8.68-8.89s3.67-9.25,9.36-9.25c1.87,0,3.53,.47,4.39,.9l-.72,2.45c-.76-.43-1.94-.83-3.67-.83-4,0-6.16,2.95-6.16,6.59,0,4.03,2.59,6.52,6.05,6.52,1.8,0,2.99-.47,3.89-.86l.54,2.38Z"/><path class="cls-2" d="M813.58,449.52c0,6.44-4.46,9.25-8.67,9.25-4.72,0-8.35-3.46-8.35-8.96,0-5.83,3.82-9.25,8.64-9.25s8.39,3.64,8.39,8.96Zm-13.82,.18c0,3.82,2.2,6.69,5.29,6.69s5.29-2.84,5.29-6.77c0-2.95-1.48-6.69-5.22-6.69s-5.36,3.46-5.36,6.77Z"/><path class="cls-2" d="M817.58,432.82h3.17v25.56h-3.17v-25.56Z"/><path class="cls-2" d="M826.08,432.82h3.17v25.56h-3.17v-25.56Z"/><path class="cls-2" d="M836.34,450.24c.07,4.28,2.81,6.05,5.98,6.05,2.27,0,3.64-.4,4.82-.9l.54,2.27c-1.12,.5-3.02,1.08-5.8,1.08-5.36,0-8.57-3.53-8.57-8.78s3.1-9.4,8.17-9.4c5.69,0,7.2,5,7.2,8.21,0,.65-.07,1.15-.11,1.48h-12.24Zm9.29-2.27c.04-2.02-.83-5.15-4.39-5.15-3.2,0-4.61,2.95-4.86,5.15h9.25Z"/><path class="cls-2" d="M865.03,457.73c-.83,.43-2.66,1.01-5,1.01-5.26,0-8.68-3.56-8.68-8.89s3.67-9.25,9.36-9.25c1.87,0,3.53,.47,4.39,.9l-.72,2.45c-.76-.43-1.94-.83-3.67-.83-4,0-6.16,2.95-6.16,6.59,0,4.03,2.59,6.52,6.05,6.52,1.8,0,2.99-.47,3.89-.86l.54,2.38Z"/><path class="cls-2" d="M873.02,435.95v5h4.54v2.41h-4.54v9.4c0,2.16,.61,3.38,2.38,3.38,.83,0,1.44-.11,1.84-.22l.14,2.38c-.61,.25-1.58,.43-2.81,.43-1.48,0-2.66-.47-3.42-1.33-.9-.94-1.22-2.48-1.22-4.54v-9.5h-2.7v-2.41h2.7v-4.18l3.1-.83Z"/><path class="cls-2" d="M892.57,435.95v5h4.54v2.41h-4.54v9.4c0,2.16,.61,3.38,2.38,3.38,.83,0,1.44-.11,1.84-.22l.14,2.38c-.61,.25-1.58,.43-2.81,.43-1.48,0-2.66-.47-3.42-1.33-.9-.94-1.22-2.48-1.22-4.54v-9.5h-2.7v-2.41h2.7v-4.18l3.1-.83Z"/><path class="cls-2" d="M900.67,432.82h3.17v10.87h.07c.5-.9,1.3-1.69,2.27-2.23,.94-.54,2.05-.9,3.24-.9,2.34,0,6.08,1.44,6.08,7.45v10.37h-3.17v-10.01c0-2.81-1.04-5.18-4.03-5.18-2.05,0-3.67,1.44-4.25,3.17-.18,.43-.22,.9-.22,1.51v10.51h-3.17v-25.56Z"/><path class="cls-2" d="M922.41,450.24c.07,4.28,2.81,6.05,5.98,6.05,2.27,0,3.64-.4,4.82-.9l.54,2.27c-1.12,.5-3.02,1.08-5.8,1.08-5.36,0-8.57-3.53-8.57-8.78s3.1-9.4,8.17-9.4c5.69,0,7.2,5,7.2,8.21,0,.65-.07,1.15-.11,1.48h-12.24Zm9.29-2.27c.04-2.02-.83-5.15-4.39-5.15-3.2,0-4.61,2.95-4.86,5.15h9.25Z"/><path class="cls-2" d="M938.68,445.67c0-1.8-.04-3.28-.14-4.72h2.77l.14,2.81h.11c.97-1.66,2.59-3.2,5.47-3.2,2.38,0,4.18,1.44,4.93,3.49h.07c.54-.97,1.22-1.73,1.94-2.27,1.04-.79,2.2-1.22,3.85-1.22,2.3,0,5.72,1.51,5.72,7.56v10.26h-3.1v-9.86c0-3.35-1.22-5.36-3.78-5.36-1.8,0-3.2,1.33-3.74,2.88-.14,.43-.25,1.01-.25,1.58v10.76h-3.1v-10.44c0-2.77-1.22-4.79-3.64-4.79-1.98,0-3.42,1.58-3.92,3.17-.18,.47-.25,1.01-.25,1.55v10.51h-3.1v-12.71Z"/><path class="cls-2" d="M967.95,456.51c0-1.33,.9-2.27,2.16-2.27s2.12,.94,2.12,2.27-.83,2.27-2.16,2.27c-1.26,0-2.12-.97-2.12-2.27Z"/><path class="cls-2" d="M996.46,447h-9.43v8.75h10.51v2.63h-13.64v-24.26h13.1v2.63h-9.97v7.67h9.43v2.59Z"/><path class="cls-2" d="M1011.15,458.38l-.25-2.2h-.11c-.97,1.37-2.84,2.59-5.33,2.59-3.53,0-5.33-2.48-5.33-5,0-4.21,3.74-6.52,10.47-6.48v-.36c0-1.44-.4-4.03-3.96-4.03-1.62,0-3.31,.5-4.54,1.3l-.72-2.09c1.44-.94,3.53-1.55,5.72-1.55,5.33,0,6.62,3.64,6.62,7.13v6.52c0,1.51,.07,2.99,.29,4.18h-2.88Zm-.47-8.89c-3.46-.07-7.38,.54-7.38,3.92,0,2.05,1.37,3.02,2.99,3.02,2.27,0,3.71-1.44,4.21-2.92,.11-.32,.18-.68,.18-1.01v-3.02Z"/><path class="cls-2" d="M1031.27,457.73c-.83,.43-2.66,1.01-5,1.01-5.26,0-8.68-3.56-8.68-8.89s3.67-9.25,9.36-9.25c1.87,0,3.53,.47,4.39,.9l-.72,2.45c-.76-.43-1.94-.83-3.67-.83-4,0-6.16,2.95-6.16,6.59,0,4.03,2.59,6.52,6.05,6.52,1.8,0,2.99-.47,3.89-.86l.54,2.38Z"/><path class="cls-2" d="M1034.98,432.82h3.17v10.87h.07c.5-.9,1.3-1.69,2.27-2.23,.94-.54,2.05-.9,3.24-.9,2.34,0,6.08,1.44,6.08,7.45v10.37h-3.17v-10.01c0-2.81-1.04-5.18-4.03-5.18-2.05,0-3.67,1.44-4.25,3.17-.18,.43-.22,.9-.22,1.51v10.51h-3.17v-25.56Z"/><path class="cls-2" d="M1062.16,455.14c.94,.61,2.59,1.26,4.18,1.26,2.3,0,3.38-1.15,3.38-2.59,0-1.51-.9-2.34-3.24-3.2-3.13-1.12-4.61-2.84-4.61-4.93,0-2.81,2.27-5.11,6.01-5.11,1.76,0,3.31,.5,4.28,1.08l-.79,2.3c-.68-.43-1.94-1.01-3.56-1.01-1.87,0-2.92,1.08-2.92,2.38,0,1.44,1.04,2.09,3.31,2.95,3.02,1.15,4.57,2.66,4.57,5.26,0,3.06-2.38,5.22-6.52,5.22-1.91,0-3.67-.47-4.9-1.19l.79-2.41Z"/><path class="cls-2" d="M1076.85,445.67c0-1.8-.04-3.28-.14-4.72h2.81l.18,2.88h.07c.86-1.66,2.88-3.28,5.76-3.28,2.41,0,6.16,1.44,6.16,7.42v10.4h-3.17v-10.04c0-2.81-1.04-5.15-4.03-5.15-2.09,0-3.71,1.48-4.25,3.24-.14,.4-.22,.94-.22,1.48v10.47h-3.17v-12.71Z"/><path class="cls-2" d="M1106.47,458.38l-.25-2.2h-.11c-.97,1.37-2.84,2.59-5.33,2.59-3.53,0-5.33-2.48-5.33-5,0-4.21,3.74-6.52,10.47-6.48v-.36c0-1.44-.4-4.03-3.96-4.03-1.62,0-3.31,.5-4.54,1.3l-.72-2.09c1.44-.94,3.53-1.55,5.72-1.55,5.33,0,6.62,3.64,6.62,7.13v6.52c0,1.51,.07,2.99,.29,4.18h-2.88Zm-.47-8.89c-3.46-.07-7.38,.54-7.38,3.92,0,2.05,1.37,3.02,2.99,3.02,2.27,0,3.71-1.44,4.21-2.92,.11-.32,.18-.68,.18-1.01v-3.02Z"/><path class="cls-2" d="M1126.6,457.73c-.83,.43-2.66,1.01-5,1.01-5.26,0-8.68-3.56-8.68-8.89s3.67-9.25,9.36-9.25c1.87,0,3.53,.47,4.39,.9l-.72,2.45c-.76-.43-1.94-.83-3.67-.83-4,0-6.16,2.95-6.16,6.59,0,4.03,2.59,6.52,6.05,6.52,1.8,0,2.99-.47,3.89-.86l.54,2.38Z"/><path class="cls-2" d="M1133.44,448.95h.07c.43-.61,1.04-1.37,1.55-1.98l5.11-6.01h3.82l-6.73,7.16,7.67,10.26h-3.85l-6.01-8.35-1.62,1.8v6.55h-3.13v-25.56h3.13v16.13Z"/><path class="cls-2" d="M1158.35,436.06c.04,1.08-.76,1.94-2.02,1.94-1.12,0-1.91-.86-1.91-1.94s.83-1.98,1.98-1.98,1.94,.86,1.94,1.98Zm-3.53,22.32v-17.42h3.17v17.42h-3.17Z"/><path class="cls-2" d="M1162.81,455.14c.94,.61,2.59,1.26,4.18,1.26,2.3,0,3.38-1.15,3.38-2.59,0-1.51-.9-2.34-3.24-3.2-3.13-1.12-4.61-2.84-4.61-4.93,0-2.81,2.27-5.11,6.01-5.11,1.76,0,3.31,.5,4.28,1.08l-.79,2.3c-.68-.43-1.94-1.01-3.56-1.01-1.87,0-2.92,1.08-2.92,2.38,0,1.44,1.04,2.09,3.31,2.95,3.02,1.15,4.57,2.66,4.57,5.26,0,3.06-2.38,5.22-6.52,5.22-1.91,0-3.67-.47-4.9-1.19l.79-2.41Z"/><path class="cls-2" d="M1186.39,440.96l2.3,8.85c.5,1.94,.97,3.74,1.3,5.54h.11c.4-1.76,.97-3.64,1.55-5.51l2.84-8.89h2.66l2.7,8.71c.65,2.09,1.15,3.92,1.55,5.69h.11c.29-1.76,.76-3.6,1.33-5.65l2.48-8.75h3.13l-5.62,17.42h-2.88l-2.66-8.31c-.61-1.94-1.12-3.67-1.55-5.72h-.07c-.43,2.09-.97,3.89-1.58,5.76l-2.81,8.28h-2.88l-5.26-17.42h3.24Z"/><path class="cls-2" d="M1227.04,449.52c0,6.44-4.46,9.25-8.67,9.25-4.72,0-8.35-3.46-8.35-8.96,0-5.83,3.82-9.25,8.64-9.25s8.39,3.64,8.39,8.96Zm-13.82,.18c0,3.82,2.2,6.69,5.29,6.69s5.29-2.84,5.29-6.77c0-2.95-1.48-6.69-5.22-6.69s-5.36,3.46-5.36,6.77Z"/><path class="cls-2" d="M1231.03,446.39c0-2.05-.04-3.82-.14-5.44h2.77l.11,3.42h.14c.79-2.34,2.7-3.82,4.82-3.82,.36,0,.61,.04,.9,.11v2.99c-.32-.07-.65-.11-1.08-.11-2.23,0-3.82,1.69-4.25,4.07-.07,.43-.14,.94-.14,1.48v9.29h-3.13v-11.99Z"/><path class="cls-2" d="M1247.48,435.95v5h4.54v2.41h-4.54v9.4c0,2.16,.61,3.38,2.38,3.38,.83,0,1.44-.11,1.84-.22l.14,2.38c-.61,.25-1.58,.43-2.81,.43-1.48,0-2.66-.47-3.42-1.33-.9-.94-1.22-2.48-1.22-4.54v-9.5h-2.7v-2.41h2.7v-4.18l3.1-.83Z"/><path class="cls-2" d="M1255.58,432.82h3.17v10.87h.07c.5-.9,1.3-1.69,2.27-2.23,.94-.54,2.05-.9,3.24-.9,2.34,0,6.08,1.44,6.08,7.45v10.37h-3.17v-10.01c0-2.81-1.04-5.18-4.03-5.18-2.05,0-3.67,1.44-4.25,3.17-.18,.43-.22,.9-.22,1.51v10.51h-3.17v-25.56Z"/><path class="cls-2" d="M1289.06,437.93h-.07l-4.07,2.2-.61-2.41,5.11-2.74h2.7v23.4h-3.06v-20.45Z"/><path class="cls-2" d="M1309.3,446.64c0-2.23-.07-4.03-.14-5.69h2.84l.14,2.99h.07c1.3-2.12,3.35-3.38,6.19-3.38,4.21,0,7.38,3.56,7.38,8.85,0,6.26-3.82,9.36-7.92,9.36-2.3,0-4.32-1.01-5.36-2.74h-.07v9.47h-3.13v-18.86Zm3.13,4.64c0,.47,.07,.9,.14,1.3,.58,2.2,2.48,3.71,4.75,3.71,3.35,0,5.29-2.74,5.29-6.73,0-3.49-1.84-6.48-5.18-6.48-2.16,0-4.18,1.55-4.79,3.92-.11,.4-.22,.86-.22,1.3v2.99Z"/><path class="cls-2" d="M1345.54,449.52c0,6.44-4.46,9.25-8.67,9.25-4.72,0-8.35-3.46-8.35-8.96,0-5.83,3.82-9.25,8.64-9.25s8.39,3.64,8.39,8.96Zm-13.82,.18c0,3.82,2.2,6.69,5.29,6.69s5.29-2.84,5.29-6.77c0-2.95-1.48-6.69-5.22-6.69s-5.36,3.46-5.36,6.77Z"/><path class="cls-2" d="M1353.07,436.06c.04,1.08-.76,1.94-2.02,1.94-1.12,0-1.91-.86-1.91-1.94s.83-1.98,1.98-1.98,1.94,.86,1.94,1.98Zm-3.53,22.32v-17.42h3.17v17.42h-3.17Z"/><path class="cls-2" d="M1357.97,445.67c0-1.8-.04-3.28-.14-4.72h2.81l.18,2.88h.07c.86-1.66,2.88-3.28,5.76-3.28,2.41,0,6.16,1.44,6.16,7.42v10.4h-3.17v-10.04c0-2.81-1.04-5.15-4.03-5.15-2.09,0-3.71,1.48-4.25,3.24-.14,.4-.22,.94-.22,1.48v10.47h-3.17v-12.71Z"/><path class="cls-2" d="M1381.62,435.95v5h4.54v2.41h-4.54v9.4c0,2.16,.61,3.38,2.38,3.38,.83,0,1.44-.11,1.84-.22l.14,2.38c-.61,.25-1.58,.43-2.81,.43-1.48,0-2.66-.47-3.42-1.33-.9-.94-1.22-2.48-1.22-4.54v-9.5h-2.7v-2.41h2.7v-4.18l3.1-.83Z"/><path class="cls-2" d="M1388.85,456.51c0-1.33,.9-2.27,2.16-2.27s2.12,.94,2.12,2.27-.83,2.27-2.16,2.27c-1.26,0-2.12-.97-2.12-2.27Z"/><path class="cls-2" d="M660.28,500.79c-1.15,.58-3.46,1.15-6.41,1.15-6.84,0-11.99-4.32-11.99-12.27s5.15-12.74,12.67-12.74c3.02,0,4.93,.65,5.76,1.08l-.76,2.56c-1.19-.58-2.88-1.01-4.9-1.01-5.69,0-9.47,3.64-9.47,10.01,0,5.94,3.42,9.75,9.32,9.75,1.91,0,3.85-.4,5.11-1.01l.65,2.48Z"/><path class="cls-2" d="M664.1,476.02h3.17v25.56h-3.17v-25.56Z"/><path class="cls-2" d="M676.12,479.26c.04,1.08-.76,1.94-2.02,1.94-1.12,0-1.91-.86-1.91-1.94s.83-1.98,1.98-1.98,1.94,.86,1.94,1.98Zm-3.53,22.32v-17.42h3.17v17.42h-3.17Z"/><path class="cls-2" d="M693.43,500.93c-.83,.43-2.66,1.01-5,1.01-5.26,0-8.68-3.56-8.68-8.89s3.67-9.25,9.36-9.25c1.87,0,3.53,.47,4.39,.9l-.72,2.45c-.76-.43-1.94-.83-3.67-.83-4,0-6.16,2.95-6.16,6.59,0,4.03,2.59,6.52,6.05,6.52,1.8,0,2.99-.47,3.89-.86l.54,2.38Z"/><path class="cls-2" d="M700.28,492.15h.07c.43-.61,1.04-1.37,1.55-1.98l5.11-6.01h3.82l-6.73,7.16,7.67,10.26h-3.85l-6.01-8.35-1.62,1.8v6.55h-3.13v-25.56h3.13v16.13Z"/><path class="cls-2" d="M718.17,479.26c.04,1.08-.76,1.94-2.02,1.94-1.12,0-1.91-.86-1.91-1.94s.83-1.98,1.98-1.98,1.94,.86,1.94,1.98Zm-3.53,22.32v-17.42h3.17v17.42h-3.17Z"/><path class="cls-2" d="M723.06,488.87c0-1.8-.04-3.28-.14-4.72h2.81l.18,2.88h.07c.86-1.66,2.88-3.28,5.76-3.28,2.41,0,6.16,1.44,6.16,7.42v10.4h-3.17v-10.04c0-2.81-1.04-5.15-4.03-5.15-2.09,0-3.71,1.48-4.25,3.24-.14,.4-.22,.94-.22,1.48v10.47h-3.17v-12.71Z"/><path class="cls-2" d="M758.05,484.16c-.07,1.26-.14,2.66-.14,4.79v10.11c0,4-.79,6.44-2.48,7.96-1.69,1.58-4.14,2.09-6.34,2.09s-4.39-.5-5.8-1.44l.79-2.41c1.15,.72,2.95,1.37,5.11,1.37,3.24,0,5.62-1.69,5.62-6.08v-1.94h-.07c-.97,1.62-2.84,2.92-5.54,2.92-4.32,0-7.42-3.67-7.42-8.5,0-5.9,3.85-9.25,7.85-9.25,3.02,0,4.68,1.58,5.44,3.02h.07l.14-2.63h2.77Zm-3.28,6.88c0-.54-.04-1.01-.18-1.44-.58-1.84-2.12-3.35-4.43-3.35-3.02,0-5.18,2.56-5.18,6.59,0,3.42,1.73,6.26,5.15,6.26,1.94,0,3.71-1.22,4.39-3.24,.18-.54,.25-1.15,.25-1.69v-3.13Z"/><path class="cls-2" d="M786.56,492.72c0,6.44-4.46,9.25-8.67,9.25-4.72,0-8.35-3.46-8.35-8.96,0-5.83,3.82-9.25,8.64-9.25s8.39,3.64,8.39,8.96Zm-13.82,.18c0,3.82,2.2,6.69,5.29,6.69s5.29-2.84,5.29-6.77c0-2.95-1.48-6.69-5.22-6.69s-5.36,3.46-5.36,6.77Z"/><path class="cls-2" d="M790.56,488.87c0-1.8-.04-3.28-.14-4.72h2.81l.18,2.88h.07c.86-1.66,2.88-3.28,5.76-3.28,2.41,0,6.16,1.44,6.16,7.42v10.4h-3.17v-10.04c0-2.81-1.04-5.15-4.03-5.15-2.09,0-3.71,1.48-4.25,3.24-.14,.4-.22,.94-.22,1.48v10.47h-3.17v-12.71Z"/><path class="cls-2" d="M827.82,501.58l-.25-2.2h-.11c-.97,1.37-2.84,2.59-5.33,2.59-3.53,0-5.33-2.48-5.33-5,0-4.21,3.74-6.52,10.47-6.48v-.36c0-1.44-.4-4.03-3.96-4.03-1.62,0-3.31,.5-4.54,1.3l-.72-2.09c1.44-.94,3.53-1.55,5.72-1.55,5.33,0,6.62,3.64,6.62,7.13v6.52c0,1.51,.07,2.99,.29,4.18h-2.88Zm-.47-8.89c-3.46-.07-7.38,.54-7.38,3.92,0,2.05,1.37,3.02,2.99,3.02,2.27,0,3.71-1.44,4.21-2.92,.11-.32,.18-.68,.18-1.01v-3.02Z"/><path class="cls-2" d="M843.16,488.87c0-1.8-.04-3.28-.14-4.72h2.77l.14,2.81h.11c.97-1.66,2.59-3.2,5.47-3.2,2.38,0,4.18,1.44,4.93,3.49h.07c.54-.97,1.22-1.73,1.94-2.27,1.04-.79,2.2-1.22,3.85-1.22,2.3,0,5.72,1.51,5.72,7.56v10.26h-3.1v-9.86c0-3.35-1.22-5.36-3.78-5.36-1.8,0-3.2,1.33-3.74,2.88-.14,.43-.25,1.01-.25,1.58v10.76h-3.1v-10.44c0-2.77-1.22-4.79-3.64-4.79-1.98,0-3.42,1.58-3.92,3.17-.18,.47-.25,1.01-.25,1.55v10.51h-3.1v-12.71Z"/><path class="cls-2" d="M888.95,492.72c0,6.44-4.46,9.25-8.67,9.25-4.72,0-8.35-3.46-8.35-8.96,0-5.83,3.82-9.25,8.64-9.25s8.39,3.64,8.39,8.96Zm-13.82,.18c0,3.82,2.2,6.69,5.29,6.69s5.29-2.84,5.29-6.77c0-2.95-1.48-6.69-5.22-6.69s-5.36,3.46-5.36,6.77Z"/><path class="cls-2" d="M892.94,488.87c0-1.8-.04-3.28-.14-4.72h2.81l.18,2.88h.07c.86-1.66,2.88-3.28,5.76-3.28,2.41,0,6.16,1.44,6.16,7.42v10.4h-3.17v-10.04c0-2.81-1.04-5.15-4.03-5.15-2.09,0-3.71,1.48-4.25,3.24-.14,.4-.22,.94-.22,1.48v10.47h-3.17v-12.71Z"/><path class="cls-2" d="M912.49,498.34c.94,.61,2.59,1.26,4.18,1.26,2.3,0,3.38-1.15,3.38-2.59,0-1.51-.9-2.34-3.24-3.2-3.13-1.12-4.61-2.84-4.61-4.93,0-2.81,2.27-5.11,6.01-5.11,1.76,0,3.31,.5,4.28,1.08l-.79,2.3c-.68-.43-1.94-1.01-3.56-1.01-1.87,0-2.92,1.08-2.92,2.38,0,1.44,1.04,2.09,3.31,2.95,3.02,1.15,4.57,2.66,4.57,5.26,0,3.06-2.38,5.22-6.52,5.22-1.91,0-3.67-.47-4.9-1.19l.79-2.41Z"/><path class="cls-2" d="M931,479.15v5h4.54v2.41h-4.54v9.4c0,2.16,.61,3.38,2.38,3.38,.83,0,1.44-.11,1.84-.22l.14,2.38c-.61,.25-1.58,.43-2.81,.43-1.48,0-2.66-.47-3.42-1.33-.9-.94-1.22-2.48-1.22-4.54v-9.5h-2.7v-2.41h2.7v-4.18l3.1-.83Z"/><path class="cls-2" d="M940.64,493.44c.07,4.28,2.81,6.05,5.98,6.05,2.27,0,3.64-.4,4.82-.9l.54,2.27c-1.12,.5-3.02,1.08-5.8,1.08-5.36,0-8.57-3.53-8.57-8.78s3.1-9.4,8.17-9.4c5.69,0,7.2,5,7.2,8.21,0,.65-.07,1.15-.11,1.48h-12.24Zm9.29-2.27c.04-2.02-.83-5.15-4.39-5.15-3.2,0-4.61,2.95-4.86,5.15h9.25Z"/><path class="cls-2" d="M956.92,489.59c0-2.05-.04-3.82-.14-5.44h2.77l.11,3.42h.14c.79-2.34,2.7-3.82,4.82-3.82,.36,0,.61,.04,.9,.11v2.99c-.32-.07-.65-.11-1.08-.11-2.23,0-3.82,1.69-4.25,4.07-.07,.43-.14,.94-.14,1.48v9.29h-3.13v-11.99Z"/><path class="cls-2" d="M977.58,484.16l2.3,8.85c.5,1.94,.97,3.74,1.3,5.54h.11c.4-1.76,.97-3.64,1.55-5.51l2.84-8.89h2.66l2.7,8.71c.65,2.09,1.15,3.92,1.55,5.69h.11c.29-1.76,.76-3.6,1.33-5.65l2.48-8.75h3.13l-5.62,17.42h-2.88l-2.66-8.31c-.61-1.94-1.12-3.67-1.55-5.72h-.07c-.43,2.09-.97,3.89-1.58,5.76l-2.81,8.28h-2.88l-5.26-17.42h3.24Z"/><path class="cls-2" d="M1006.34,479.26c.04,1.08-.76,1.94-2.02,1.94-1.12,0-1.91-.86-1.91-1.94s.83-1.98,1.98-1.98,1.94,.86,1.94,1.98Zm-3.53,22.32v-17.42h3.17v17.42h-3.17Z"/><path class="cls-2" d="M1011.24,476.02h3.17v25.56h-3.17v-25.56Z"/><path class="cls-2" d="M1019.73,476.02h3.17v25.56h-3.17v-25.56Z"/><path class="cls-2" d="M1050.91,476.02v21.06c0,1.55,.04,3.31,.14,4.5h-2.84l-.14-3.02h-.07c-.97,1.94-3.1,3.42-5.94,3.42-4.21,0-7.45-3.56-7.45-8.85-.04-5.8,3.56-9.36,7.81-9.36,2.66,0,4.46,1.26,5.26,2.66h.07v-10.4h3.17Zm-3.17,15.23c0-.4-.04-.94-.14-1.33-.47-2.02-2.2-3.67-4.57-3.67-3.28,0-5.22,2.88-5.22,6.73,0,3.53,1.73,6.44,5.15,6.44,2.12,0,4.07-1.4,4.64-3.78,.11-.43,.14-.86,.14-1.37v-3.02Z"/><path class="cls-2" d="M1057.93,493.44c.07,4.28,2.81,6.05,5.98,6.05,2.27,0,3.64-.4,4.82-.9l.54,2.27c-1.12,.5-3.02,1.08-5.8,1.08-5.36,0-8.57-3.53-8.57-8.78s3.1-9.4,8.17-9.4c5.69,0,7.2,5,7.2,8.21,0,.65-.07,1.15-.11,1.48h-12.24Zm9.29-2.27c.04-2.02-.83-5.15-4.39-5.15-3.2,0-4.61,2.95-4.86,5.15h9.25Z"/><path class="cls-2" d="M1089.25,476.02v21.06c0,1.55,.04,3.31,.14,4.5h-2.84l-.14-3.02h-.07c-.97,1.94-3.1,3.42-5.94,3.42-4.21,0-7.45-3.56-7.45-8.85-.04-5.8,3.56-9.36,7.81-9.36,2.66,0,4.46,1.26,5.26,2.66h.07v-10.4h3.17Zm-3.17,15.23c0-.4-.04-.94-.14-1.33-.47-2.02-2.2-3.67-4.57-3.67-3.28,0-5.22,2.88-5.22,6.73,0,3.53,1.73,6.44,5.15,6.44,2.12,0,4.07-1.4,4.64-3.78,.11-.43,.14-.86,.14-1.37v-3.02Z"/><path class="cls-2" d="M1109.08,496.83c0,1.8,.04,3.38,.14,4.75h-2.81l-.18-2.84h-.07c-.83,1.4-2.66,3.24-5.76,3.24-2.74,0-6.01-1.51-6.01-7.63v-10.19h3.17v9.65c0,3.31,1.01,5.54,3.89,5.54,2.12,0,3.6-1.48,4.18-2.88,.18-.47,.29-1.04,.29-1.62v-10.69h3.17v12.67Z"/><path class="cls-2" d="M1126.76,500.93c-.83,.43-2.66,1.01-5,1.01-5.26,0-8.68-3.56-8.68-8.89s3.67-9.25,9.36-9.25c1.87,0,3.53,.47,4.39,.9l-.72,2.45c-.76-.43-1.94-.83-3.67-.83-4,0-6.16,2.95-6.16,6.59,0,4.03,2.59,6.52,6.05,6.52,1.8,0,2.99-.47,3.89-.86l.54,2.38Z"/><path class="cls-2" d="M1134.75,479.15v5h4.54v2.41h-4.54v9.4c0,2.16,.61,3.38,2.38,3.38,.83,0,1.44-.11,1.84-.22l.14,2.38c-.61,.25-1.58,.43-2.81,.43-1.48,0-2.66-.47-3.42-1.33-.9-.94-1.22-2.48-1.22-4.54v-9.5h-2.7v-2.41h2.7v-4.18l3.1-.83Z"/><path class="cls-2" d="M1156.35,481.13h-.07l-4.07,2.2-.61-2.41,5.11-2.74h2.7v23.4h-3.06v-20.45Z"/><path class="cls-2" d="M1176.58,489.84c0-2.23-.07-4.03-.14-5.69h2.84l.14,2.99h.07c1.3-2.12,3.35-3.38,6.19-3.38,4.21,0,7.38,3.56,7.38,8.85,0,6.26-3.82,9.36-7.92,9.36-2.3,0-4.32-1.01-5.36-2.74h-.07v9.47h-3.13v-18.86Zm3.13,4.64c0,.47,.07,.9,.14,1.3,.58,2.2,2.48,3.71,4.75,3.71,3.35,0,5.29-2.74,5.29-6.73,0-3.49-1.84-6.48-5.18-6.48-2.16,0-4.18,1.55-4.79,3.92-.11,.4-.22,.86-.22,1.3v2.99Z"/><path class="cls-2" d="M1212.83,492.72c0,6.44-4.46,9.25-8.67,9.25-4.72,0-8.35-3.46-8.35-8.96,0-5.83,3.82-9.25,8.64-9.25s8.39,3.64,8.39,8.96Zm-13.82,.18c0,3.82,2.2,6.69,5.29,6.69s5.29-2.84,5.29-6.77c0-2.95-1.48-6.69-5.22-6.69s-5.36,3.46-5.36,6.77Z"/><path class="cls-2" d="M1220.36,479.26c.04,1.08-.76,1.94-2.02,1.94-1.12,0-1.91-.86-1.91-1.94s.83-1.98,1.98-1.98,1.94,.86,1.94,1.98Zm-3.53,22.32v-17.42h3.17v17.42h-3.17Z"/><path class="cls-2" d="M1225.25,488.87c0-1.8-.04-3.28-.14-4.72h2.81l.18,2.88h.07c.86-1.66,2.88-3.28,5.76-3.28,2.41,0,6.16,1.44,6.16,7.42v10.4h-3.17v-10.04c0-2.81-1.04-5.15-4.03-5.15-2.09,0-3.71,1.48-4.25,3.24-.14,.4-.22,.94-.22,1.48v10.47h-3.17v-12.71Z"/><path class="cls-2" d="M1248.91,479.15v5h4.54v2.41h-4.54v9.4c0,2.16,.61,3.38,2.38,3.38,.83,0,1.44-.11,1.84-.22l.14,2.38c-.61,.25-1.58,.43-2.81,.43-1.48,0-2.66-.47-3.42-1.33-.9-.94-1.22-2.48-1.22-4.54v-9.5h-2.7v-2.41h2.7v-4.18l3.1-.83Z"/><path class="cls-2" d="M1256.14,499.71c0-1.33,.9-2.27,2.16-2.27s2.12,.94,2.12,2.27-.83,2.27-2.16,2.27c-1.26,0-2.12-.97-2.12-2.27Z"/></g><rect class="cls-1" x="821" y="593.57" width="244.64" height="85.37"/><g><path class="cls-3" d="M836.49,646.31c1.87,1.15,4.61,2.11,7.49,2.11,4.27,0,6.77-2.26,6.77-5.52,0-3.02-1.73-4.75-6.1-6.43-5.28-1.87-8.54-4.61-8.54-9.17,0-5.04,4.18-8.78,10.47-8.78,3.31,0,5.71,.77,7.15,1.58l-1.15,3.41c-1.06-.58-3.22-1.54-6.14-1.54-4.42,0-6.1,2.64-6.1,4.85,0,3.02,1.97,4.51,6.43,6.24,5.47,2.11,8.26,4.75,8.26,9.5,0,4.99-3.7,9.31-11.33,9.31-3.12,0-6.53-.91-8.26-2.06l1.06-3.5Z"/><path class="cls-3" d="M865.53,621.49v6.67h6.05v3.22h-6.05v12.53c0,2.88,.82,4.51,3.17,4.51,1.1,0,1.92-.14,2.45-.29l.19,3.17c-.82,.34-2.11,.58-3.74,.58-1.97,0-3.55-.62-4.56-1.78-1.2-1.25-1.63-3.31-1.63-6.05v-12.67h-3.6v-3.22h3.6v-5.57l4.13-1.1Z"/><path class="cls-3" d="M889.19,651.39l-.34-2.93h-.14c-1.3,1.82-3.79,3.46-7.1,3.46-4.7,0-7.1-3.31-7.1-6.67,0-5.62,4.99-8.69,13.97-8.64v-.48c0-1.92-.53-5.38-5.28-5.38-2.16,0-4.42,.67-6.05,1.73l-.96-2.78c1.92-1.25,4.7-2.06,7.63-2.06,7.1,0,8.83,4.85,8.83,9.5v8.69c0,2.02,.1,3.98,.38,5.57h-3.84Zm-.62-11.86c-4.61-.1-9.84,.72-9.84,5.23,0,2.74,1.82,4.03,3.98,4.03,3.02,0,4.94-1.92,5.62-3.89,.14-.43,.24-.91,.24-1.34v-4.03Z"/><path class="cls-3" d="M899.46,635.41c0-2.74-.05-5.09-.19-7.25h3.7l.14,4.56h.19c1.06-3.12,3.6-5.09,6.43-5.09,.48,0,.82,.05,1.2,.14v3.98c-.43-.1-.86-.14-1.44-.14-2.98,0-5.09,2.26-5.66,5.42-.1,.58-.19,1.25-.19,1.97v12.39h-4.18v-15.99Z"/><path class="cls-3" d="M921.4,621.49v6.67h6.05v3.22h-6.05v12.53c0,2.88,.82,4.51,3.17,4.51,1.1,0,1.92-.14,2.45-.29l.19,3.17c-.82,.34-2.11,.58-3.74,.58-1.97,0-3.55-.62-4.56-1.78-1.2-1.25-1.63-3.31-1.63-6.05v-12.67h-3.6v-3.22h3.6v-5.57l4.13-1.1Z"/><path class="cls-3" d="M962.39,628.16c-.1,1.68-.19,3.55-.19,6.38v13.49c0,5.33-1.06,8.59-3.31,10.61-2.26,2.11-5.52,2.78-8.45,2.78s-5.86-.67-7.73-1.92l1.06-3.22c1.54,.96,3.94,1.82,6.82,1.82,4.32,0,7.49-2.26,7.49-8.11v-2.59h-.1c-1.3,2.16-3.79,3.89-7.39,3.89-5.76,0-9.89-4.9-9.89-11.33,0-7.87,5.14-12.34,10.46-12.34,4.03,0,6.24,2.11,7.25,4.03h.1l.19-3.5h3.7Zm-4.37,9.17c0-.72-.05-1.34-.24-1.92-.77-2.45-2.83-4.46-5.9-4.46-4.03,0-6.91,3.41-6.91,8.78,0,4.56,2.3,8.35,6.86,8.35,2.59,0,4.94-1.63,5.86-4.32,.24-.72,.34-1.54,.34-2.26v-4.18Z"/><path class="cls-3" d="M982.07,651.39l-.34-2.93h-.14c-1.3,1.82-3.79,3.46-7.1,3.46-4.7,0-7.1-3.31-7.1-6.67,0-5.62,4.99-8.69,13.97-8.64v-.48c0-1.92-.53-5.38-5.28-5.38-2.16,0-4.42,.67-6.05,1.73l-.96-2.78c1.92-1.25,4.7-2.06,7.63-2.06,7.1,0,8.83,4.85,8.83,9.5v8.69c0,2.02,.1,3.98,.38,5.57h-3.84Zm-.62-11.86c-4.61-.1-9.84,.72-9.84,5.23,0,2.74,1.82,4.03,3.98,4.03,3.02,0,4.94-1.92,5.62-3.89,.14-.43,.24-.91,.24-1.34v-4.03Z"/><path class="cls-3" d="M992.34,634.45c0-2.4-.05-4.37-.19-6.29h3.7l.19,3.74h.14c1.3-2.21,3.46-4.27,7.3-4.27,3.17,0,5.57,1.92,6.58,4.66h.1c.72-1.3,1.63-2.3,2.59-3.02,1.39-1.06,2.93-1.63,5.14-1.63,3.07,0,7.63,2.02,7.63,10.08v13.68h-4.13v-13.15c0-4.46-1.63-7.15-5.04-7.15-2.4,0-4.27,1.78-4.99,3.84-.19,.58-.34,1.34-.34,2.11v14.35h-4.13v-13.92c0-3.7-1.63-6.38-4.85-6.38-2.64,0-4.56,2.11-5.23,4.22-.24,.62-.34,1.34-.34,2.06v14.02h-4.13v-16.95Z"/><path class="cls-3" d="M1034.73,640.55c.1,5.71,3.74,8.06,7.97,8.06,3.02,0,4.85-.53,6.43-1.2l.72,3.02c-1.49,.67-4.03,1.44-7.73,1.44-7.15,0-11.42-4.7-11.42-11.71s4.13-12.53,10.9-12.53c7.58,0,9.6,6.67,9.6,10.95,0,.86-.1,1.54-.14,1.97h-16.32Zm12.39-3.02c.05-2.69-1.1-6.86-5.86-6.86-4.27,0-6.14,3.94-6.48,6.86h12.34Z"/></g></svg>